<svg width="140" height="140" viewBox="0 0 140 140" fill="none" xmlns="http://www.w3.org/2000/svg">
<rect width="140" height="140" rx="70" fill="#FFA528"/>
<ellipse cx="88.5865" cy="70.0026" rx="10.0563" ry="10.0111" fill="#D47F0E"/>
<path fill-rule="evenodd" clip-rule="evenodd" d="M52.6343 87.8473H33.1941C31.4268 87.8473 29.9941 86.4146 29.9941 84.6473V81.7542H26.2C24.4327 81.7542 23 80.3216 23 78.5542V64.0615C23 62.2942 24.4327 60.8615 26.2 60.8615H29.9941V55.3556C29.9941 53.5883 31.4268 52.1556 33.1941 52.1556H52.6362C52.7789 51.9735 52.9618 51.8214 53.176 51.7135L88.0149 34.173C89.079 33.6372 90.3344 34.4107 90.3344 35.6021V104.403C90.3344 105.595 89.079 106.368 88.0149 105.832L53.176 88.2919C52.9608 88.1835 52.7772 88.0305 52.6343 87.8473Z" fill="#F9EB8E"/>
<rect x="43.5518" y="52.1556" width="8.74458" height="35.6917" fill="#D47F0E"/>
<path d="M109.556 70.4567C109.736 64.4165 107.98 58.8238 104.992 54.6577C104.335 53.7423 103.056 53.6537 102.251 54.3871C101.468 55.0999 101.427 56.3242 102.043 57.2289C104.362 60.6342 105.723 65.2302 105.574 70.2029C105.427 75.1319 103.824 79.5033 101.348 82.5957C100.689 83.4187 100.661 84.6359 101.395 85.4416C102.158 86.2792 103.445 86.3501 104.152 85.5127C107.328 81.7491 109.377 76.4431 109.556 70.4567Z" fill="#F9EB8E"/>
<path d="M75.0273 68.3813C75.0284 68.3385 75.0296 68.2957 75.0309 68.2528C75.0322 68.2099 75.0336 68.1671 75.035 68.1243L75.0273 68.3813Z" fill="#F9EB8E"/>
<path d="M116.99 70.5944C117.141 65.6153 115.673 61.0051 113.177 57.5709C112.628 56.8164 111.56 56.7433 110.887 57.3479C110.232 57.9354 110.199 58.9446 110.713 59.6904C112.651 62.4975 113.787 66.286 113.663 70.3852C113.54 74.4483 112.201 78.0517 110.132 80.6009C109.582 81.2793 109.559 82.2826 110.172 82.9468C110.809 83.6373 111.885 83.6957 112.475 83.0055C115.129 79.903 116.84 75.5291 116.99 70.5944Z" fill="#F9EB8E"/>
<path d="M88.1431 68.8836C88.144 68.8483 88.145 68.813 88.146 68.7777C88.1471 68.7423 88.1483 68.707 88.1495 68.6718L88.1431 68.8836Z" fill="#F9EB8E"/>
</svg>
