<svg width="240" height="135" viewBox="0 0 240 135" fill="none" xmlns="http://www.w3.org/2000/svg">
<path fill-rule="evenodd" clip-rule="evenodd" d="M198.19 135C199.376 129.521 200 123.834 200 118C200 73.8172 164.183 38 120 38C75.8172 38 40 73.8172 40 118C40 123.834 40.6244 129.521 41.81 135H198.19Z" fill="#F8EEAC"/>
<path fill-rule="evenodd" clip-rule="evenodd" d="M187.921 135C189.279 129.558 190 123.863 190 118C190 79.3401 158.66 48 120 48C81.3401 48 50 79.3401 50 118C50 123.863 50.7208 129.558 52.0786 135H187.921Z" fill="white"/>
<path d="M26.5398 121.18H6.78925C3.03965 121.18 0 124.197 0 127.919C0 131.641 3.03965 134.658 6.78925 134.658H26.5398C30.2894 134.658 33.329 131.641 33.329 127.919C33.329 124.197 30.2894 121.18 26.5398 121.18Z" fill="#F8EEAC"/>
</svg>
