<svg width="240" height="135" viewBox="0 0 240 135" fill="none" xmlns="http://www.w3.org/2000/svg">
<g clip-path="url(#clip0_513_5671)">
<path d="M198.484 134.42H198.623C198.633 134.38 198.639 134.34 198.648 134.301C198.595 134.34 198.54 134.38 198.484 134.42Z" fill="#F8EEAC"/>
<path fill-rule="evenodd" clip-rule="evenodd" d="M198.19 135.099C199.376 129.621 200 123.933 200 118.099C200 73.9167 164.183 38.0995 120 38.0995C75.8172 38.0995 40 73.9167 40 118.099C40 123.933 40.6244 129.621 41.81 135.099H198.19Z" fill="#F8EEAC"/>
<path fill-rule="evenodd" clip-rule="evenodd" d="M187.921 135.099C189.279 129.657 190 123.962 190 118.099C190 79.4395 158.66 48.0995 120 48.0995C81.3401 48.0995 50 79.4395 50 118.099C50 123.962 50.7208 129.657 52.0786 135.099H187.921Z" fill="white"/>
<path d="M26.5398 121.279H6.78925C3.03965 121.279 0 124.296 0 128.018C0 131.74 3.03965 134.758 6.78925 134.758H26.5398C30.2894 134.758 33.329 131.74 33.329 128.018C33.329 124.296 30.2894 121.279 26.5398 121.279Z" fill="#F8EEAC"/>
<path d="M18.0987 66.9379C14.7004 65.3649 10.6609 66.8243 9.07629 70.1976C7.49164 73.5709 8.96189 77.5807 12.3602 79.1537L30.2603 87.4392C33.6585 89.0122 37.698 87.5528 39.2827 84.1795C40.8673 80.8062 39.3971 76.7964 35.9988 75.2234L18.0987 66.9379Z" fill="#F8EEAC"/>
<path d="M58.4767 23.1626C56.0665 20.3114 51.7842 19.9395 48.9118 22.332C46.0394 24.7244 45.6648 28.9753 48.075 31.8265L60.7704 46.8451C63.1806 49.6963 67.4629 50.0682 70.3353 47.6757C73.2077 45.2833 73.5823 41.0324 71.1721 38.1812L58.4767 23.1626Z" fill="#F8EEAC"/>
</g>
<defs>
<clipPath id="clip0_513_5671">
<rect width="240" height="135" fill="white"/>
</clipPath>
</defs>
</svg>
