<svg width="200" height="97" viewBox="0 0 200 97" fill="none" xmlns="http://www.w3.org/2000/svg">
<path d="M198.484 96.3206H198.623C198.633 96.2808 198.639 96.241 198.648 96.2012C198.595 96.241 198.54 96.2808 198.484 96.3206Z" fill="#F8EEAC"/>
<path fill-rule="evenodd" clip-rule="evenodd" d="M198.19 97C199.376 91.5213 200 85.8336 200 80C200 35.8172 164.183 0 120 0C75.8172 0 40 35.8172 40 80C40 85.8336 40.6244 91.5213 41.81 97H198.19Z" fill="#F8EEAC"/>
<path fill-rule="evenodd" clip-rule="evenodd" d="M187.921 97C189.279 91.5575 190 85.8629 190 80C190 41.3401 158.66 10 120 10C81.3401 10 50 41.3401 50 80C50 85.8629 50.7208 91.5575 52.0786 97H187.921Z" fill="white"/>
<path d="M26.5398 83.1797H6.78925C3.03965 83.1797 0 86.197 0 89.919C0 93.641 3.03965 96.6583 6.78925 96.6583H26.5398C30.2894 96.6583 33.329 93.641 33.329 89.919C33.329 86.197 30.2894 83.1797 26.5398 83.1797Z" fill="#F8EEAC"/>
</svg>
