<svg width="240" height="135" viewBox="0 0 240 135" fill="none" xmlns="http://www.w3.org/2000/svg">
<path d="M186.728 131.662C187.888 131.662 188.712 131.433 189.196 130.976C189.681 130.517 189.925 130.005 189.925 129.435C189.925 128.866 189.681 128.388 189.196 127.931C188.709 127.472 187.885 127.245 186.728 127.245H167.752C166.591 127.245 165.767 127.475 165.283 127.931C164.795 128.391 164.555 128.89 164.555 129.435C164.555 129.981 164.798 130.52 165.283 130.976C165.767 131.436 166.591 131.662 167.752 131.662H186.728Z" fill="#F8EEAC"/>
<path d="M198.488 134.659H198.627C198.636 134.619 198.642 134.579 198.651 134.539C198.599 134.579 198.543 134.619 198.488 134.659Z" fill="#F8EEAC"/>
<path d="M132.043 110.035C132.043 109.689 131.95 109.416 131.762 109.217C131.574 109.018 131.2 108.92 130.638 108.92H109.024C108.462 108.92 108.098 109.018 107.928 109.217C107.759 109.416 107.675 109.689 107.675 110.035V116.091C107.675 116.462 107.796 116.747 108.039 116.946C108.283 117.145 108.74 117.243 109.416 117.243H132.04V110.035H132.043Z" fill="#F8EEAC"/>
<path d="M44.4099 102.456H80.0597C82.5285 102.456 84.306 102.705 85.3923 103.201C86.4786 103.697 87.0217 104.65 87.0217 106.062V110.482C87.0217 111.87 86.852 113.083 86.5156 114.125C86.1792 115.166 85.7472 116.009 85.2257 116.652H85.6176C87.2254 116.652 88.358 116.925 89.0153 117.47C89.6695 118.015 89.9967 118.634 89.9967 119.326C89.9967 120.019 89.6603 120.665 88.9875 121.183C88.3148 121.703 87.1915 121.964 85.6207 121.964H69.3975V122.846C69.3975 124.368 68.1846 125.603 66.6879 125.603H60.7658C59.2691 125.603 58.0563 124.368 58.0563 122.846V121.964H41.8331C41.1387 121.964 40.5401 121.909 40.0216 121.808C40.1759 125.03 40.5246 128.201 41.0554 131.313C41.8238 131.111 42.7003 131.053 43.6878 131.141C45.3728 131.292 46.9991 131.347 48.573 131.31C50.1468 131.273 51.5479 131.157 52.7823 130.958C54.0167 130.759 55.0567 130.48 55.8992 130.121C56.7417 129.763 57.3126 129.334 57.6119 128.841C58.2477 127.726 59.0901 126.985 60.1394 126.611C61.1855 126.24 62.5156 126.053 64.1265 126.053C65.4751 126.053 66.6139 126.252 67.552 126.648C68.4871 127.043 69.0302 127.64 69.1814 128.43C71.4281 128.332 73.6253 128.388 75.7763 128.599C77.9272 128.81 79.9023 129.23 81.6983 129.861C83.4944 130.492 85.0374 131.377 86.3305 132.517C86.3428 132.529 86.3551 132.538 86.3706 132.551C87.0248 133.133 87.247 133.92 87.1513 134.658H94.206C93.8048 134.171 93.6042 133.641 93.6042 133.071C93.6042 132.701 93.6875 132.336 93.8573 131.975C94.027 131.616 94.2955 131.295 94.672 131.01C95.0454 130.725 95.533 130.495 96.1317 130.324C96.7304 130.149 97.4587 130.063 98.3197 130.063H114.151V123.079H104.495C102.81 123.079 101.443 122.987 100.397 122.8C99.3473 122.613 98.5357 122.31 97.9555 121.89C97.3753 121.471 96.9803 120.901 96.7766 120.181C96.5699 119.464 96.468 118.557 96.468 117.47V108.7C96.468 107.633 96.5699 106.736 96.7766 106.007C96.9834 105.278 97.3753 104.693 97.9555 104.261C98.5357 103.829 99.3504 103.516 100.397 103.333C101.443 103.146 102.81 103.054 104.495 103.054H135.259C136.944 103.054 138.308 103.146 139.358 103.333C140.404 103.519 141.218 103.829 141.799 104.261C142.379 104.696 142.771 105.278 142.978 106.007C143.184 106.739 143.286 107.637 143.286 108.7V119.519C143.286 121.486 141.721 123.079 139.793 123.079H125.603V130.063H141.434C142.295 130.063 143.024 130.149 143.622 130.324C144.221 130.498 144.709 130.728 145.082 131.01C145.456 131.295 145.727 131.616 145.897 131.975C146.067 132.333 146.15 132.698 146.15 133.071C146.15 133.641 145.949 134.168 145.548 134.658H155.997C155.072 133.99 154.371 133.225 153.899 132.348C153.411 131.445 153.171 130.471 153.171 129.432C153.171 128.394 153.414 127.456 153.899 126.553C154.387 125.649 155.115 124.856 156.087 124.175C157.059 123.495 158.284 122.956 159.765 122.558C161.244 122.163 162.975 121.964 164.959 121.964H189.549C191.493 121.964 193.206 122.157 194.687 122.54C196.165 122.923 197.39 123.456 198.365 124.139C199.032 124.604 199.588 125.125 200.035 125.698C200.26 123.37 200.387 121.014 200.405 118.634C199.804 119.902 198.532 120.778 197.057 120.778H193.165C191.11 120.778 189.441 119.081 189.441 116.986V105.618C189.441 104.405 190.012 103.489 191.153 102.867C192.295 102.248 193.613 101.939 195.11 101.939C195.819 101.939 196.523 102.018 197.214 102.181C197.872 102.334 198.452 102.558 198.958 102.842C191.832 66.0978 159.272 38.3379 120.175 38.3379C81.078 38.3379 48.4835 66.1284 41.3825 102.904C42.1139 102.607 43.1292 102.456 44.4315 102.456H44.4099ZM151.412 106.469C151.412 105.207 151.955 104.291 153.041 103.719C154.127 103.149 155.454 102.864 157.028 102.864C158.602 102.864 159.911 103.149 160.957 103.719C162.003 104.288 162.527 105.204 162.527 106.469V112.936C162.527 113.359 162.62 113.622 162.808 113.736C162.997 113.846 163.407 113.904 164.043 113.904H181.223C182.945 113.904 184.151 114.195 184.842 114.777C185.534 115.359 185.882 116.048 185.882 116.839C185.882 117.629 185.528 118.312 184.815 118.882C184.102 119.452 182.904 119.737 181.223 119.737H159.386C156.692 119.737 154.689 119.372 153.377 118.64C152.066 117.911 151.412 116.64 151.412 114.832V106.469Z" fill="#F8EEAC"/>
<path d="M65.7978 133.595C65.1559 133.984 64.4523 134.337 63.6839 134.661H75.0744C74.4726 134.367 73.7937 134.128 73.0376 133.948C70.9052 133.439 68.4888 133.323 65.7947 133.595H65.7978Z" fill="#F8EEAC"/>
<path d="M43.8474 109.664H75.9605V108.476C75.9605 107.955 75.51 107.695 74.6119 107.695H44.409C42.7241 107.695 41.5174 107.453 40.7891 106.969C40.7552 106.947 40.7274 106.923 40.6966 106.901C40.5361 108.044 40.4003 109.196 40.2892 110.354C41.0237 109.894 42.2087 109.664 43.8505 109.664H43.8474Z" fill="#F8EEAC"/>
<path d="M74.2216 116.652C74.4469 116.379 74.6413 116.082 74.811 115.76C74.9808 115.439 75.1381 115.093 75.2894 114.719H43.852C42.1671 114.719 40.9604 114.489 40.2321 114.033C40.1581 113.987 40.0933 113.938 40.0285 113.889C39.9791 114.863 39.9544 115.84 39.939 116.823C40.4728 116.71 41.1024 116.652 41.8338 116.652H74.2247H74.2216Z" fill="#F8EEAC"/>
<path d="M126.79 6.73933C126.79 3.0173 123.75 0 120.001 0C116.251 0 113.211 3.0173 113.211 6.73933V26.3446C113.211 30.0667 116.251 33.084 120.001 33.084C123.75 33.084 126.79 30.0667 126.79 26.3446V6.73933Z" fill="#F8EEAC"/>
<path d="M26.5398 121.18H6.78925C3.03965 121.18 0 124.197 0 127.919C0 131.641 3.03965 134.658 6.78925 134.658H26.5398C30.2894 134.658 33.329 131.641 33.329 127.919C33.329 124.197 30.2894 121.18 26.5398 121.18Z" fill="#F8EEAC"/>
<path d="M233.212 121.18H213.461C209.712 121.18 206.672 124.197 206.672 127.919C206.672 131.641 209.712 134.658 213.461 134.658H233.212C236.962 134.658 240.001 131.641 240.001 127.919C240.001 124.197 236.962 121.18 233.212 121.18Z" fill="#F8EEAC"/>
<path d="M58.4778 23.0632C56.0676 20.2119 51.7853 19.84 48.9129 22.2325C46.0405 24.625 45.6659 28.8758 48.0761 31.7271L60.7715 46.7456C63.1817 49.5969 67.464 49.9688 70.3364 47.5763C73.2088 45.1838 73.5834 40.9329 71.1732 38.0817L58.4778 23.0632Z" fill="#F8EEAC"/>
<path d="M180.984 23.062L168.288 38.0805C165.878 40.9318 166.253 45.1826 169.125 47.5751C171.997 49.9676 176.28 49.5957 178.69 46.7445L191.385 31.7259C193.796 28.8747 193.421 24.6238 190.549 22.2313C187.676 19.8389 183.394 20.2108 180.984 23.062Z" fill="#F8EEAC"/>
<path d="M18.0975 66.8384C14.6992 65.2654 10.6597 66.7248 9.07507 70.0982C7.49042 73.4715 8.96067 77.4812 12.359 79.0542L30.259 87.3398C33.6573 88.9128 37.6968 87.4533 39.2814 84.08C40.8661 80.7067 39.3958 76.697 35.9976 75.124L18.0975 66.8384Z" fill="#F8EEAC"/>
<path d="M222.214 66.8389L204.313 75.1245C200.915 76.6975 199.445 80.7073 201.03 84.0806C202.614 87.4539 206.654 88.9133 210.052 87.3403L227.952 79.0547C231.35 77.4817 232.821 73.472 231.236 70.0987C229.651 66.7254 225.612 65.2659 222.214 66.8389Z" fill="#F8EEAC"/>
<path d="M186.722 127.238H167.746C166.586 127.238 165.762 127.468 165.277 127.924C164.79 128.384 164.549 128.883 164.549 129.429C164.549 129.974 164.793 130.513 165.277 130.969C165.762 131.429 166.586 131.656 167.746 131.656H186.722C187.882 131.656 188.706 131.426 189.191 130.969C189.456 130.718 189.648 130.452 189.768 130.17C189.814 129.851 189.864 129.53 189.907 129.211C189.851 128.752 189.611 128.32 189.191 127.924C188.703 127.465 187.879 127.238 186.722 127.238Z" fill="white"/>
<path d="M132.041 110.035C132.041 109.689 131.948 109.416 131.76 109.217C131.572 109.018 131.199 108.92 130.637 108.92H109.022C108.461 108.92 108.097 109.018 107.927 109.217C107.757 109.416 107.674 109.689 107.674 110.035V116.091C107.674 116.462 107.794 116.747 108.038 116.946C108.282 117.145 108.738 117.243 109.414 117.243H132.038V110.035H132.041Z" fill="white"/>
<path d="M80.0572 102.456C82.526 102.456 84.3036 102.704 85.3899 103.2C86.4762 103.696 87.0193 104.649 87.0193 106.061V110.482C87.0193 111.869 86.8496 113.083 86.5132 114.124C86.1768 115.166 85.7448 116.008 85.2232 116.651H85.6151C87.223 116.651 88.3555 116.924 89.0129 117.469C89.6671 118.015 89.9942 118.633 89.9942 119.326C89.9942 120.018 89.6578 120.664 88.9851 121.182C88.3123 121.703 87.189 121.963 85.6182 121.963H69.395V122.845C69.395 124.368 68.1822 125.602 66.6855 125.602H60.7634C59.2667 125.602 58.0539 124.368 58.0539 122.845V121.963H49.8265C49.9129 125.097 50.2092 128.182 50.6999 131.199C51.4374 131.141 52.1318 131.058 52.7799 130.954C54.0143 130.755 55.0543 130.476 55.8967 130.118C56.7392 129.759 57.3101 129.33 57.6095 128.837C58.2452 127.722 59.0877 126.981 60.1369 126.607C61.1831 126.236 62.5132 126.05 64.1241 126.05C65.4727 126.05 66.6114 126.249 67.5496 126.644C68.4846 127.039 69.0278 127.636 69.179 128.427C71.4256 128.329 73.6229 128.384 75.7738 128.595C77.9248 128.807 79.8998 129.226 81.6959 129.857C83.492 130.488 85.035 131.374 86.328 132.513C86.3404 132.525 86.3527 132.535 86.3681 132.547C87.0224 133.129 87.2446 133.916 87.1489 134.655H94.2036C93.8024 134.167 93.6018 133.637 93.6018 133.068C93.6018 132.697 93.6851 132.333 93.8548 131.971C94.0246 131.613 94.2931 131.291 94.6695 131.006C95.043 130.721 95.5305 130.491 96.1292 130.32C96.7279 130.145 97.4562 130.06 98.3172 130.06H114.149V123.075H104.492C102.807 123.075 101.44 122.983 100.394 122.796C99.3449 122.61 98.5332 122.306 97.9531 121.887C97.3729 121.467 96.9779 120.897 96.7742 120.177C96.5674 119.46 96.4656 118.554 96.4656 117.466V108.696C96.4656 107.63 96.5674 106.732 96.7742 106.003C96.981 105.274 97.3729 104.689 97.9531 104.257C98.5332 103.825 99.348 103.513 100.394 103.329C101.44 103.142 102.807 103.05 104.492 103.05H135.257C136.942 103.05 138.306 103.142 139.355 103.329C140.401 103.516 141.216 103.825 141.796 104.257C142.376 104.692 142.768 105.274 142.975 106.003C143.182 106.735 143.284 107.633 143.284 108.696V119.516C143.284 121.482 141.719 123.075 139.79 123.075H125.601V130.06H141.432C142.293 130.06 143.021 130.145 143.62 130.32C144.219 130.495 144.706 130.724 145.08 131.006C145.453 131.291 145.725 131.613 145.894 131.971C146.064 132.329 146.147 132.694 146.147 133.068C146.147 133.637 145.947 134.164 145.546 134.655H155.995C155.069 133.987 154.369 133.221 153.897 132.345C153.409 131.441 153.168 130.467 153.168 129.428C153.168 128.39 153.412 127.453 153.897 126.549C154.384 125.645 155.112 124.852 156.084 124.172C157.057 123.492 158.282 122.953 159.763 122.554C161.241 122.159 162.972 121.96 164.957 121.96H189.546C189.873 121.96 190.191 121.966 190.503 121.978C190.521 121.332 190.531 120.683 190.531 120.033C190.531 119.908 190.528 119.785 190.525 119.663C189.849 118.976 189.432 118.027 189.432 116.979V107.682C183.556 75.0023 154.782 50.1924 120.169 50.1924C87.4297 50.1924 59.9117 72.3923 52.0608 102.453H80.0727L80.0572 102.456ZM151.409 106.469C151.409 105.207 151.952 104.291 153.039 103.718C154.125 103.148 155.452 102.863 157.026 102.863C158.6 102.863 159.908 103.148 160.954 103.718C162 104.288 162.525 105.204 162.525 106.469V112.936C162.525 113.358 162.618 113.622 162.806 113.735C162.994 113.845 163.405 113.904 164.04 113.904H181.22C182.942 113.904 184.149 114.195 184.84 114.777C185.531 115.359 185.88 116.048 185.88 116.838C185.88 117.629 185.525 118.312 184.812 118.881C184.099 119.451 182.902 119.736 181.22 119.736H159.383C156.689 119.736 154.687 119.372 153.375 118.639C152.063 117.91 151.409 116.639 151.409 114.832V106.469Z" fill="white"/>
<path d="M74.8066 115.756C74.9763 115.435 75.1337 115.089 75.2849 114.715H49.995C49.9456 115.355 49.9086 116.001 49.8777 116.648H74.2172C74.4424 116.375 74.6369 116.078 74.8066 115.756Z" fill="white"/>
<path d="M75.9582 108.475C75.9582 107.955 75.5076 107.694 74.6096 107.694H50.8873C50.77 108.347 50.6651 109.005 50.5664 109.664H75.9582V108.475Z" fill="white"/>
<path d="M65.7963 133.594C65.1544 133.983 64.4508 134.336 63.6823 134.66H75.0728C74.4711 134.366 73.7921 134.127 73.0361 133.947C70.9036 133.438 68.4873 133.322 65.7932 133.594H65.7963Z" fill="white"/>
</svg>
