<svg width="240" height="135" viewBox="0 0 240 135" fill="none" xmlns="http://www.w3.org/2000/svg">
<path fill-rule="evenodd" clip-rule="evenodd" d="M120.153 38L120.172 38L120.19 38C123.364 38 126.495 38.1844 129.573 38.5431C164.389 42.5849 192.391 68.7548 198.936 102.505C198.903 102.486 198.87 102.467 198.836 102.449C199.849 107.539 200.38 112.802 200.38 118.19L200.38 118.304L200.384 118.296C200.383 118.421 200.381 118.546 200.38 118.67C200.379 118.735 200.378 118.799 200.377 118.863C200.332 124.393 199.726 129.79 198.615 135H41.7648C41.342 133.018 40.9924 131.008 40.719 128.975C40.3631 126.507 40.1214 124.005 40 121.47C40.022 121.474 40.0441 121.478 40.0664 121.482C40.0223 120.39 40 119.293 40 118.19C40 112.82 40.5278 107.574 41.5343 102.5C41.4748 102.521 41.417 102.543 41.3609 102.566C48.4619 65.7905 81.0564 38 120.153 38Z" fill="#F8EEAC"/>
<path fill-rule="evenodd" clip-rule="evenodd" d="M189.606 107.49V107.921C190.275 111.675 190.646 115.532 190.695 119.467L190.698 119.47C190.701 119.593 190.704 119.715 190.704 119.841C190.704 120.109 190.703 120.378 190.699 120.646C190.679 125.567 190.154 130.367 189.172 135H51.5275C50.7378 131.272 50.2434 127.434 50.0699 123.513C50.0394 122.934 50.0161 122.353 50 121.771H50.0141C50.0047 121.298 50 120.825 50 120.35C50 119.043 50.0356 117.745 50.106 116.455H50.0512C50.082 115.809 50.1191 115.163 50.1684 114.522H50.2379C50.3774 112.821 50.5775 111.137 50.836 109.472H50.7398C50.8386 108.813 50.9435 108.154 51.0608 107.502H51.1705C51.4974 105.731 51.8906 103.983 52.3476 102.26H52.2343C60.0851 72.1999 87.6032 50 120.343 50C154.956 50 183.73 74.8099 189.606 107.49Z" fill="white"/>
<path d="M198.484 134.321H198.623C198.633 134.281 198.639 134.241 198.648 134.201C198.595 134.241 198.54 134.281 198.484 134.321Z" fill="#F8EEAC"/>
<path d="M126.789 6.73933C126.789 3.0173 123.75 0 120 0C116.251 0 113.211 3.0173 113.211 6.73933V26.3446C113.211 30.0667 116.251 33.084 120 33.084C123.75 33.084 126.789 30.0667 126.789 26.3446V6.73933Z" fill="#F8EEAC"/>
<path d="M26.5398 121.18H6.78925C3.03965 121.18 0 124.197 0 127.919C0 131.641 3.03965 134.658 6.78925 134.658H26.5398C30.2894 134.658 33.329 131.641 33.329 127.919C33.329 124.197 30.2894 121.18 26.5398 121.18Z" fill="#F8EEAC"/>
<path d="M233.212 121.18H213.461C209.712 121.18 206.672 124.197 206.672 127.919C206.672 131.641 209.712 134.658 213.461 134.658H233.212C236.961 134.658 240.001 131.641 240.001 127.919C240.001 124.197 236.961 121.18 233.212 121.18Z" fill="#F8EEAC"/>
<path d="M58.4767 23.0632C56.0665 20.2119 51.7842 19.84 48.9118 22.2325C46.0394 24.625 45.6648 28.8758 48.075 31.7271L60.7704 46.7456C63.1806 49.5969 67.4629 49.9688 70.3353 47.5763C73.2077 45.1838 73.5823 40.9329 71.1721 38.0817L58.4767 23.0632Z" fill="#F8EEAC"/>
<path d="M180.985 23.062L168.29 38.0805C165.88 40.9318 166.254 45.1826 169.127 47.5751C171.999 49.9676 176.281 49.5957 178.692 46.7445L191.387 31.7259C193.797 28.8747 193.423 24.6238 190.55 22.2313C187.678 19.8389 183.395 20.2108 180.985 23.062Z" fill="#F8EEAC"/>
<path d="M18.0987 66.8384C14.7004 65.2654 10.6609 66.7248 9.07629 70.0982C7.49164 73.4715 8.96189 77.4812 12.3602 79.0542L30.2603 87.3398C33.6585 88.9128 37.698 87.4533 39.2827 84.08C40.8673 80.7067 39.3971 76.697 35.9988 75.124L18.0987 66.8384Z" fill="#F8EEAC"/>
<path d="M222.213 66.8389L204.313 75.1245C200.915 76.6975 199.445 80.7073 201.029 84.0806C202.614 87.4539 206.654 88.9133 210.052 87.3403L227.952 79.0547C231.35 77.4817 232.82 73.472 231.236 70.0987C229.651 66.7254 225.612 65.2659 222.213 66.8389Z" fill="#F8EEAC"/>
</svg>
