<svg width="240" height="162" viewBox="0 0 240 162" fill="none" xmlns="http://www.w3.org/2000/svg">
<path d="M40.0033 149.682C40.0033 149.444 40.0429 149.235 40.1254 149.059C40.208 148.882 40.3169 148.732 40.4522 148.605C40.5876 148.481 40.7427 148.386 40.9177 148.324C41.0927 148.262 41.2742 148.23 41.469 148.23C41.6638 148.23 41.8453 148.262 42.0203 148.324C42.1952 148.386 42.3504 148.481 42.4857 148.605C42.6211 148.729 42.73 148.879 42.8125 149.059C42.8951 149.235 42.9347 149.444 42.9347 149.682V152.984L46.348 148.85C46.4933 148.677 46.655 148.543 46.8333 148.448C47.0115 148.354 47.1964 148.292 47.3845 148.262C47.5727 148.233 47.7609 148.24 47.9523 148.276C48.1405 148.315 48.3089 148.38 48.4541 148.478C48.6192 148.582 48.7545 148.716 48.8601 148.879C48.9658 149.042 49.0351 149.215 49.0648 149.405C49.0945 149.591 49.0846 149.78 49.0351 149.972C48.9856 150.165 48.8899 150.335 48.7446 150.488L45.9981 153.516L50.0518 159.847H46.6814L44.0967 155.611L42.9347 156.89V159.847H40V149.682H40.0033Z" fill="white"/>
<path d="M57.2914 155.21H53.6173V159.847H50.6265V149.695C50.6265 149.457 50.6661 149.245 50.7486 149.062C50.8311 148.88 50.9401 148.726 51.0754 148.602C51.2108 148.478 51.3692 148.384 51.5541 148.322C51.7389 148.26 51.9271 148.227 52.1219 148.227C52.3166 148.227 52.5015 148.26 52.6797 148.322C52.858 148.384 53.0198 148.478 53.1584 148.602C53.2971 148.726 53.4093 148.88 53.4918 149.062C53.5743 149.245 53.614 149.454 53.614 149.695V152.71H57.2881V149.695C57.2881 149.457 57.3277 149.245 57.4102 149.062C57.4927 148.88 57.6017 148.726 57.737 148.602C57.8724 148.478 58.0308 148.384 58.2157 148.322C58.4005 148.26 58.5887 148.227 58.7835 148.227C58.9782 148.227 59.1631 148.26 59.3414 148.322C59.5196 148.384 59.6814 148.478 59.82 148.602C59.9587 148.726 60.0709 148.88 60.1534 149.062C60.236 149.245 60.2756 149.454 60.2756 149.695V159.847H57.2848V155.21H57.2914Z" fill="white"/>
<path d="M68.1509 149.653C68.1509 149.415 68.1905 149.203 68.273 149.02C68.3556 148.837 68.4645 148.691 68.5998 148.576C68.7352 148.462 68.8936 148.374 69.0719 148.319C69.2502 148.26 69.4416 148.234 69.6463 148.234C70.0523 148.234 70.4022 148.348 70.6993 148.58C70.9964 148.811 71.1417 149.167 71.1417 149.656V155.873C71.1417 156.675 70.9964 157.348 70.7059 157.883C70.4154 158.418 70.0424 158.852 69.5869 159.182C69.1313 159.511 68.6295 159.746 68.075 159.886C67.5204 160.027 66.9856 160.095 66.464 160.095C65.9425 160.095 65.4044 160.027 64.8531 159.886C64.3018 159.746 63.7967 159.514 63.3412 159.182C62.8856 158.852 62.5126 158.418 62.2221 157.883C61.9316 157.348 61.7864 156.675 61.7864 155.873V149.656C61.7864 149.418 61.826 149.206 61.9085 149.023C61.991 148.841 62.1 148.694 62.2353 148.58C62.3707 148.465 62.5291 148.377 62.7074 148.322C62.8856 148.263 63.0771 148.237 63.2818 148.237C63.6878 148.237 64.0377 148.351 64.3348 148.583C64.6286 148.811 64.7772 149.17 64.7772 149.66V155.99C64.7772 156.258 64.8267 156.493 64.929 156.695C65.0314 156.897 65.1634 157.064 65.3285 157.198C65.4935 157.331 65.6751 157.432 65.8731 157.498C66.0712 157.566 66.266 157.599 66.4607 157.599C66.6555 157.599 66.8503 157.566 67.0483 157.498C67.2464 157.432 67.4279 157.331 67.593 157.198C67.7581 157.064 67.8901 156.897 67.9924 156.695C68.0948 156.493 68.1443 156.261 68.1443 155.99V149.66L68.1509 149.653Z" fill="white"/>
<path d="M98.3753 155.208C98.3753 155.936 98.2532 156.559 98.0122 157.074C97.7712 157.59 97.4411 158.014 97.0252 158.337C96.6093 158.664 96.124 158.902 95.5727 159.055C95.0214 159.208 94.4338 159.284 93.8165 159.284C93.1992 159.284 92.5687 159.205 91.9646 159.045C91.3605 158.889 90.8224 158.634 90.3537 158.285C89.8849 157.936 89.5053 157.482 89.2148 156.928C88.9243 156.373 88.7791 155.704 88.7791 154.917V151.788C88.7791 150.995 88.9243 150.32 89.2148 149.765C89.5053 149.21 89.8882 148.76 90.3636 148.414C90.8389 148.068 91.3803 147.817 91.991 147.66C92.6017 147.504 93.2256 147.422 93.866 147.422C94.5065 147.422 95.1436 147.491 95.6948 147.624C96.2461 147.758 96.6621 147.925 96.9427 148.127C97.2431 148.339 97.451 148.597 97.5666 148.91C97.6821 149.22 97.6524 149.53 97.4807 149.837C97.3355 150.085 97.1407 150.264 96.8997 150.369C96.6588 150.473 96.4112 150.502 96.1603 150.454C95.9952 150.424 95.8467 150.378 95.7179 150.316C95.5859 150.254 95.4671 150.199 95.3614 150.15C95.0214 150.026 94.523 149.964 93.866 149.964C93.6152 149.964 93.361 150.003 93.1101 150.085C92.8592 150.166 92.6314 150.287 92.4268 150.444C92.2221 150.6 92.057 150.806 91.9316 151.054C91.8062 151.302 91.7434 151.589 91.7434 151.915V154.787C91.7434 155.123 91.8029 155.41 91.9184 155.655C92.0339 155.9 92.1924 156.099 92.3905 156.259C92.5885 156.415 92.813 156.536 93.0573 156.618C93.3049 156.699 93.559 156.738 93.8198 156.738C94.0608 156.738 94.2985 156.706 94.5329 156.644C94.7639 156.582 94.9686 156.49 95.1436 156.37C95.3185 156.249 95.4572 156.095 95.5661 155.909C95.6717 155.723 95.7246 155.502 95.7246 155.241V155.068C95.7246 154.924 95.7014 154.833 95.6585 154.793C95.6156 154.754 95.5265 154.735 95.3911 154.735H94.9125C94.6979 154.735 94.5196 154.699 94.3744 154.627C94.2292 154.555 94.1103 154.461 94.0179 154.346C93.9255 154.232 93.8594 154.102 93.8132 153.958C93.7703 153.815 93.7472 153.671 93.7472 153.527C93.7472 153.384 93.7703 153.237 93.8132 153.09C93.8561 152.943 93.9255 152.809 94.0179 152.689C94.1103 152.568 94.2325 152.47 94.381 152.395C94.5296 152.32 94.7078 152.281 94.9125 152.281H96.2329C96.6588 152.281 97.012 152.317 97.2926 152.389C97.5732 152.46 97.7943 152.581 97.9528 152.747C98.1112 152.914 98.2235 153.136 98.2862 153.407C98.3489 153.681 98.3819 154.017 98.3819 154.418V155.195L98.3753 155.208Z" fill="white"/>
<path d="M99.3617 154.017C99.3617 153.24 99.4871 152.601 99.738 152.092C99.9889 151.586 100.319 151.178 100.725 150.871C101.131 150.565 101.583 150.349 102.082 150.225C102.58 150.101 103.075 150.039 103.571 150.039C104.066 150.039 104.548 150.101 105.046 150.225C105.545 150.349 105.997 150.565 106.403 150.871C106.809 151.178 107.142 151.586 107.397 152.092C107.654 152.601 107.783 153.24 107.783 154.017V155.339C107.783 156.115 107.654 156.755 107.397 157.264C107.139 157.773 106.809 158.177 106.403 158.484C105.997 158.791 105.545 159.006 105.046 159.13C104.548 159.254 104.056 159.316 103.571 159.316C103.085 159.316 102.593 159.254 102.095 159.13C101.597 159.006 101.144 158.791 100.738 158.484C100.332 158.177 99.9988 157.773 99.7446 157.264C99.4871 156.758 99.3584 156.115 99.3584 155.339V154.017H99.3617ZM104.868 153.887C104.868 153.629 104.828 153.41 104.752 153.234C104.676 153.058 104.574 152.911 104.455 152.797C104.333 152.682 104.195 152.598 104.043 152.545C103.888 152.493 103.732 152.467 103.577 152.467C103.422 152.467 103.267 152.493 103.112 152.545C102.957 152.598 102.818 152.682 102.699 152.797C102.58 152.911 102.478 153.058 102.402 153.234C102.326 153.41 102.286 153.629 102.286 153.887V155.466C102.286 155.724 102.326 155.942 102.402 156.118C102.478 156.295 102.58 156.442 102.699 156.556C102.818 156.67 102.957 156.755 103.112 156.807C103.267 156.859 103.422 156.885 103.577 156.885C103.732 156.885 103.888 156.859 104.043 156.807C104.198 156.755 104.336 156.67 104.455 156.556C104.577 156.442 104.676 156.295 104.752 156.118C104.828 155.942 104.868 155.724 104.868 155.466V153.887Z" fill="white"/>
<path d="M109.011 154.017C109.011 153.24 109.137 152.601 109.388 152.092C109.639 151.586 109.969 151.178 110.375 150.871C110.781 150.565 111.233 150.349 111.732 150.225C112.23 150.101 112.725 150.039 113.22 150.039C113.716 150.039 114.198 150.101 114.696 150.225C115.194 150.349 115.647 150.565 116.053 150.871C116.459 151.178 116.792 151.586 117.046 152.092C117.304 152.601 117.433 153.24 117.433 154.017V155.339C117.433 156.115 117.304 156.755 117.046 157.264C116.789 157.773 116.459 158.177 116.053 158.484C115.647 158.791 115.194 159.006 114.696 159.13C114.198 159.254 113.706 159.316 113.22 159.316C112.735 159.316 112.243 159.254 111.745 159.13C111.246 159.006 110.794 158.791 110.388 158.484C109.982 158.177 109.649 157.773 109.394 157.264C109.137 156.758 109.008 156.115 109.008 155.339V154.017H109.011ZM114.514 153.887C114.514 153.629 114.475 153.41 114.399 153.234C114.323 153.058 114.221 152.911 114.102 152.797C113.98 152.682 113.841 152.598 113.689 152.545C113.534 152.493 113.379 152.467 113.224 152.467C113.069 152.467 112.913 152.493 112.758 152.545C112.603 152.598 112.464 152.682 112.346 152.797C112.227 152.911 112.124 153.058 112.048 153.234C111.973 153.41 111.933 153.629 111.933 153.887V155.466C111.933 155.724 111.973 155.942 112.048 156.118C112.124 156.295 112.227 156.442 112.346 156.556C112.464 156.67 112.603 156.755 112.758 156.807C112.913 156.859 113.069 156.885 113.224 156.885C113.379 156.885 113.534 156.859 113.689 156.807C113.844 156.755 113.983 156.67 114.102 156.556C114.224 156.442 114.323 156.295 114.399 156.118C114.475 155.942 114.514 155.724 114.514 155.466V153.887Z" fill="white"/>
<path d="M124.765 159.041L124.607 158.108C124.326 158.474 123.98 158.761 123.567 158.97C123.154 159.182 122.689 159.286 122.164 159.286C121.679 159.286 121.223 159.221 120.797 159.094C120.372 158.963 119.995 158.748 119.672 158.441C119.348 158.134 119.091 157.726 118.903 157.221C118.714 156.715 118.619 156.082 118.619 155.325V154.032C118.619 153.275 118.714 152.646 118.903 152.137C119.091 151.631 119.348 151.223 119.672 150.916C119.995 150.609 120.372 150.391 120.797 150.264C121.223 150.133 121.679 150.071 122.164 150.071C122.57 150.071 122.936 150.13 123.26 150.25C123.583 150.371 123.871 150.534 124.125 150.746V148.348C124.125 148.11 124.164 147.901 124.247 147.725C124.33 147.549 124.438 147.399 124.574 147.281C124.709 147.16 124.868 147.069 125.046 147.007C125.224 146.945 125.412 146.912 125.604 146.912C125.795 146.912 125.98 146.945 126.155 147.007C126.33 147.069 126.485 147.16 126.621 147.281C126.756 147.402 126.865 147.549 126.947 147.725C127.03 147.901 127.069 148.11 127.069 148.348V159.045H124.759L124.765 159.041ZM121.616 155.524C121.616 155.772 121.656 155.977 121.738 156.14C121.821 156.304 121.923 156.437 122.052 156.542C122.177 156.646 122.313 156.721 122.458 156.764C122.603 156.806 122.738 156.829 122.864 156.829C122.989 156.829 123.121 156.806 123.263 156.764C123.402 156.721 123.537 156.653 123.663 156.555C123.788 156.46 123.894 156.333 123.983 156.173C124.069 156.016 124.118 155.821 124.128 155.592V153.755C124.118 153.527 124.069 153.331 123.983 153.174C123.897 153.018 123.788 152.89 123.663 152.792C123.537 152.698 123.402 152.626 123.263 152.584C123.121 152.541 122.989 152.518 122.864 152.518C122.738 152.518 122.603 152.541 122.458 152.584C122.313 152.626 122.177 152.701 122.052 152.806C121.926 152.91 121.821 153.047 121.738 153.213C121.656 153.38 121.616 153.585 121.616 153.824V155.517V155.524Z" fill="white"/>
<path d="M138.869 158.523C138.733 158.523 138.581 158.51 138.42 158.48C138.255 158.451 138.096 158.409 137.941 158.35C137.786 158.291 137.654 158.219 137.542 158.135C137.429 158.05 137.357 157.942 137.317 157.818L135.851 152.578L135.185 159.038H132.438L133.66 148.887C133.679 148.668 133.739 148.469 133.841 148.3C133.943 148.13 134.066 147.98 134.211 147.862C134.356 147.742 134.514 147.65 134.683 147.582C134.851 147.516 135.02 147.471 135.185 147.451C135.36 147.441 135.544 147.451 135.743 147.481C135.941 147.51 136.129 147.569 136.31 147.66C136.489 147.751 136.65 147.875 136.796 148.032C136.941 148.189 137.046 148.388 137.116 148.629L138.872 155.204L140.628 148.629C140.697 148.391 140.8 148.192 140.942 148.032C141.084 147.872 141.245 147.751 141.427 147.66C141.612 147.569 141.803 147.51 142.001 147.481C142.199 147.451 142.388 147.441 142.559 147.451C142.724 147.471 142.889 147.513 143.061 147.582C143.229 147.65 143.388 147.742 143.533 147.862C143.678 147.983 143.8 148.127 143.903 148.3C144.005 148.473 144.065 148.668 144.084 148.887L145.306 159.038H142.559L141.906 152.535L140.423 157.818C140.384 157.942 140.308 158.046 140.199 158.135C140.087 158.219 139.955 158.291 139.8 158.35C139.644 158.409 139.486 158.451 139.321 158.48C139.156 158.51 139.007 158.523 138.872 158.523H138.869Z" fill="white"/>
<path d="M146.422 154.017C146.422 153.24 146.547 152.601 146.798 152.092C147.049 151.586 147.379 151.178 147.785 150.871C148.191 150.565 148.643 150.349 149.142 150.225C149.64 150.101 150.135 150.039 150.631 150.039C151.126 150.039 151.608 150.101 152.106 150.225C152.605 150.349 153.057 150.565 153.463 150.871C153.869 151.178 154.202 151.586 154.457 152.092C154.714 152.601 154.843 153.24 154.843 154.017V155.339C154.843 156.115 154.714 156.755 154.457 157.264C154.199 157.773 153.869 158.177 153.463 158.484C153.057 158.791 152.605 159.006 152.106 159.13C151.608 159.254 151.116 159.316 150.631 159.316C150.145 159.316 149.654 159.254 149.155 159.13C148.657 159.006 148.204 158.791 147.798 158.484C147.392 158.177 147.059 157.773 146.805 157.264C146.547 156.758 146.418 156.115 146.418 155.339V154.017H146.422ZM151.925 153.887C151.925 153.629 151.885 153.41 151.809 153.234C151.733 153.058 151.631 152.911 151.512 152.797C151.39 152.682 151.251 152.598 151.099 152.545C150.944 152.493 150.789 152.467 150.634 152.467C150.479 152.467 150.324 152.493 150.168 152.545C150.013 152.598 149.875 152.682 149.756 152.797C149.637 152.911 149.535 153.058 149.459 153.234C149.383 153.41 149.343 153.629 149.343 153.887V155.466C149.343 155.724 149.383 155.942 149.459 156.118C149.535 156.295 149.637 156.442 149.756 156.556C149.875 156.67 150.013 156.755 150.168 156.807C150.324 156.859 150.479 156.885 150.634 156.885C150.789 156.885 150.944 156.859 151.099 156.807C151.255 156.755 151.393 156.67 151.512 156.556C151.634 156.442 151.733 156.295 151.809 156.118C151.885 155.942 151.925 155.724 151.925 155.466V153.887Z" fill="white"/>
<path d="M156.185 159.042V151.504C156.185 151.266 156.225 151.057 156.307 150.881C156.39 150.705 156.499 150.555 156.634 150.437C156.77 150.317 156.925 150.225 157.1 150.163C157.275 150.101 157.456 150.069 157.651 150.069C157.932 150.069 158.196 150.137 158.443 150.271C158.691 150.405 158.876 150.607 159.001 150.875C159.272 150.627 159.572 150.431 159.902 150.287C160.232 150.144 160.576 150.072 160.932 150.072C161.038 150.072 161.153 150.078 161.272 150.095C161.394 150.108 161.507 150.14 161.612 150.189C161.893 150.304 162.104 150.496 162.243 150.764C162.385 151.031 162.428 151.335 162.381 151.668C162.332 152.004 162.19 152.271 161.952 152.47C161.715 152.673 161.437 152.77 161.117 152.77C161.011 152.77 160.899 152.77 160.784 152.764C160.668 152.761 160.556 152.764 160.45 152.77C160.044 152.8 159.727 152.921 159.5 153.129C159.272 153.341 159.15 153.629 159.13 153.991V159.045H156.182L156.185 159.042Z" fill="white"/>
<path d="M163.14 159.042V151.504C163.14 151.266 163.18 151.057 163.262 150.881C163.345 150.705 163.454 150.555 163.589 150.437C163.724 150.317 163.88 150.225 164.055 150.163C164.23 150.101 164.411 150.069 164.606 150.069C164.886 150.069 165.151 150.137 165.398 150.271C165.646 150.405 165.831 150.6 165.956 150.858C166.237 150.6 166.563 150.405 166.936 150.271C167.309 150.137 167.689 150.069 168.075 150.069C168.541 150.069 168.973 150.131 169.376 150.255C169.779 150.379 170.125 150.591 170.422 150.894C170.716 151.194 170.954 151.599 171.125 152.108C171.3 152.614 171.386 153.247 171.386 154.004V159.042H168.396V153.831C168.396 153.593 168.359 153.387 168.287 153.221C168.214 153.054 168.121 152.917 168.009 152.813C167.897 152.708 167.775 152.633 167.64 152.591C167.504 152.549 167.372 152.526 167.247 152.526C167.121 152.526 166.989 152.549 166.854 152.591C166.719 152.633 166.593 152.708 166.478 152.813C166.362 152.917 166.266 153.054 166.194 153.221C166.121 153.387 166.085 153.593 166.085 153.831V159.042H163.137H163.14Z" fill="white"/>
<path d="M172.857 148.227C172.857 147.757 173.006 147.421 173.306 147.215C173.607 147.01 173.96 146.905 174.366 146.905C174.772 146.905 175.125 147.01 175.425 147.215C175.726 147.421 175.874 147.76 175.874 148.227C175.874 148.465 175.835 148.671 175.752 148.837C175.67 149.004 175.561 149.141 175.425 149.245C175.29 149.35 175.128 149.428 174.947 149.474C174.762 149.523 174.57 149.545 174.366 149.545C174.161 149.545 173.97 149.523 173.785 149.474C173.6 149.425 173.441 149.35 173.306 149.245C173.171 149.141 173.062 149.004 172.979 148.837C172.897 148.671 172.857 148.465 172.857 148.227ZM172.87 151.604C172.87 151.108 173.019 150.743 173.313 150.514C173.607 150.286 173.96 150.169 174.366 150.169C174.772 150.169 175.122 150.283 175.419 150.514C175.713 150.743 175.861 151.108 175.861 151.604V159.041H172.87V151.604Z" fill="white"/>
<path d="M177.387 159.042V151.504C177.387 151.266 177.427 151.057 177.509 150.881C177.592 150.705 177.701 150.555 177.836 150.437C177.972 150.317 178.127 150.225 178.302 150.163C178.477 150.101 178.658 150.069 178.853 150.069C179.133 150.069 179.398 150.137 179.645 150.271C179.893 150.405 180.078 150.6 180.203 150.858C180.484 150.6 180.81 150.405 181.183 150.271C181.556 150.137 181.936 150.069 182.322 150.069C182.788 150.069 183.22 150.131 183.623 150.255C184.026 150.379 184.372 150.591 184.669 150.894C184.963 151.194 185.201 151.599 185.373 152.108C185.548 152.614 185.633 153.247 185.633 154.004V159.042H182.643V153.831C182.643 153.593 182.606 153.387 182.534 153.221C182.461 153.054 182.369 152.917 182.256 152.813C182.144 152.708 182.022 152.633 181.887 152.591C181.751 152.549 181.619 152.526 181.494 152.526C181.368 152.526 181.236 152.549 181.101 152.591C180.966 152.633 180.84 152.708 180.725 152.813C180.609 152.917 180.513 153.054 180.441 153.221C180.368 153.387 180.332 153.593 180.332 153.831V159.042H177.384H177.387Z" fill="white"/>
<path d="M195.326 157.965C195.326 158.356 195.27 158.764 195.157 159.185C195.045 159.606 194.827 159.991 194.504 160.34C194.18 160.689 193.718 160.986 193.117 161.231C192.516 161.476 191.728 161.616 190.75 161.655C190.615 161.665 190.453 161.662 190.265 161.649C190.077 161.636 189.879 161.61 189.678 161.577C189.473 161.544 189.281 161.502 189.097 161.446C188.912 161.391 188.763 161.335 188.648 161.267C188.423 161.143 188.268 160.944 188.176 160.67C188.083 160.396 188.086 160.135 188.182 159.887C188.268 159.658 188.42 159.475 188.631 159.342C188.846 159.208 189.077 159.159 189.328 159.198C189.542 159.227 189.763 159.257 189.994 159.283C190.226 159.312 190.48 159.325 190.75 159.325C191.061 159.325 191.328 159.289 191.549 159.218C191.77 159.146 191.955 159.048 192.101 158.924C192.246 158.8 192.351 158.66 192.421 158.506C192.49 158.353 192.523 158.196 192.523 158.033V157.775C192.272 158.023 191.972 158.219 191.622 158.356C191.272 158.497 190.876 158.565 190.43 158.565C189.945 158.565 189.493 158.503 189.073 158.379C188.654 158.255 188.281 158.043 187.961 157.74C187.641 157.439 187.39 157.035 187.205 156.532C187.02 156.03 186.928 155.406 186.928 154.659V154.026C186.928 153.269 187.02 152.639 187.205 152.13C187.39 151.624 187.641 151.217 187.961 150.91C188.281 150.603 188.654 150.384 189.08 150.257C189.506 150.127 189.961 150.065 190.447 150.065C190.813 150.065 191.183 150.133 191.549 150.267C191.916 150.401 192.242 150.603 192.523 150.871C192.639 150.603 192.82 150.401 193.068 150.267C193.315 150.133 193.583 150.065 193.873 150.065C194.259 150.065 194.599 150.185 194.89 150.424C195.18 150.662 195.326 151.021 195.326 151.5V157.961V157.965ZM189.925 154.92C189.925 155.168 189.965 155.374 190.047 155.537C190.13 155.7 190.232 155.834 190.351 155.938C190.473 156.043 190.605 156.118 190.75 156.16C190.896 156.203 191.031 156.225 191.156 156.225C191.282 156.225 191.414 156.203 191.556 156.16C191.698 156.118 191.827 156.049 191.949 155.951C192.071 155.857 192.173 155.729 192.262 155.57C192.348 155.413 192.398 155.217 192.408 154.989V153.755C192.398 153.527 192.348 153.331 192.262 153.174C192.176 153.018 192.071 152.891 191.949 152.793C191.827 152.698 191.698 152.626 191.556 152.584C191.414 152.541 191.282 152.519 191.156 152.519C191.031 152.519 190.896 152.541 190.75 152.584C190.605 152.626 190.473 152.701 190.351 152.806C190.229 152.91 190.126 153.047 190.047 153.214C189.965 153.38 189.925 153.586 189.925 153.824V154.914V154.92Z" fill="white"/>
<path d="M196.891 157.805C196.891 157.355 197.027 157.002 197.297 156.741C197.568 156.483 197.951 156.353 198.446 156.353C198.941 156.353 199.321 156.483 199.595 156.748C199.866 157.012 200.001 157.364 200.001 157.802C200.001 158.239 199.866 158.595 199.595 158.856C199.324 159.12 198.941 159.25 198.446 159.25C197.951 159.25 197.571 159.12 197.297 158.862C197.027 158.604 196.891 158.249 196.891 157.798V157.805ZM196.964 155.681V148.084C196.964 147.856 197.003 147.65 197.086 147.474C197.169 147.298 197.277 147.148 197.413 147.03C197.548 146.909 197.707 146.818 197.885 146.756C198.063 146.694 198.251 146.661 198.443 146.661C198.634 146.661 198.809 146.694 198.987 146.756C199.166 146.818 199.327 146.909 199.466 147.03C199.608 147.151 199.717 147.298 199.799 147.474C199.882 147.65 199.922 147.856 199.922 148.084V155.681H196.957H196.964Z" fill="white"/>
<path d="M85.2386 153.511H81.5513L84.1592 150.933C84.4166 150.679 84.4166 150.264 84.1592 150.01C83.9017 149.755 83.4824 149.755 83.2249 150.01L80.6171 152.588V148.943C80.6171 148.584 80.32 148.29 79.9569 148.29C79.5937 148.29 79.2966 148.584 79.2966 148.943V152.588L76.6888 150.01C76.4313 149.755 76.0121 149.755 75.7546 150.01C75.4971 150.264 75.4971 150.679 75.7546 150.933L78.3624 153.511H74.6751C74.312 153.511 74.0149 153.805 74.0149 154.164C74.0149 154.523 74.312 154.816 74.6751 154.816H78.3624L75.7546 157.394C75.4971 157.649 75.4971 158.063 75.7546 158.318C76.0121 158.572 76.4313 158.572 76.6888 158.318L79.2966 155.74V159.385C79.2966 159.744 79.5937 160.037 79.9569 160.037C80.32 160.037 80.6171 159.744 80.6171 159.385V155.74L83.2249 158.318C83.4824 158.572 83.9017 158.572 84.1592 158.318C84.4166 158.063 84.4166 157.649 84.1592 157.394L81.5513 154.816H85.2386C85.6017 154.816 85.8988 154.523 85.8988 154.164C85.8988 153.805 85.6017 153.511 85.2386 153.511Z" fill="white"/>
<path d="M79.9572 158.08C82.1449 158.08 83.9185 156.327 83.9185 154.164C83.9185 152.001 82.1449 150.248 79.9572 150.248C77.7694 150.248 75.9958 152.001 75.9958 154.164C75.9958 156.327 77.7694 158.08 79.9572 158.08Z" fill="#F8EEAC"/>
<path d="M186.728 131.662C187.888 131.662 188.712 131.433 189.196 130.976C189.681 130.517 189.925 130.005 189.925 129.435C189.925 128.866 189.681 128.388 189.196 127.931C188.709 127.472 187.885 127.245 186.728 127.245H167.752C166.591 127.245 165.767 127.475 165.283 127.931C164.795 128.391 164.555 128.89 164.555 129.435C164.555 129.981 164.798 130.52 165.283 130.976C165.767 131.436 166.591 131.662 167.752 131.662H186.728Z" fill="#F8EEAC"/>
<path d="M198.488 134.659H198.627C198.636 134.619 198.642 134.579 198.651 134.539C198.599 134.579 198.543 134.619 198.488 134.659Z" fill="#F8EEAC"/>
<path d="M132.043 110.035C132.043 109.689 131.95 109.416 131.762 109.217C131.574 109.018 131.2 108.92 130.638 108.92H109.024C108.462 108.92 108.098 109.018 107.928 109.217C107.759 109.416 107.675 109.689 107.675 110.035V116.091C107.675 116.462 107.796 116.747 108.039 116.946C108.283 117.145 108.74 117.243 109.416 117.243H132.04V110.035H132.043Z" fill="#F8EEAC"/>
<path d="M44.4099 102.456H80.0597C82.5285 102.456 84.306 102.705 85.3923 103.201C86.4786 103.697 87.0217 104.65 87.0217 106.062V110.482C87.0217 111.87 86.852 113.083 86.5156 114.125C86.1792 115.166 85.7472 116.009 85.2257 116.652H85.6176C87.2254 116.652 88.358 116.925 89.0153 117.47C89.6695 118.015 89.9967 118.634 89.9967 119.326C89.9967 120.019 89.6603 120.665 88.9875 121.183C88.3148 121.703 87.1915 121.964 85.6207 121.964H69.3975V122.846C69.3975 124.368 68.1846 125.603 66.6879 125.603H60.7658C59.2691 125.603 58.0563 124.368 58.0563 122.846V121.964H41.8331C41.1387 121.964 40.5401 121.909 40.0216 121.808C40.1759 125.03 40.5246 128.201 41.0554 131.313C41.8238 131.111 42.7003 131.053 43.6878 131.141C45.3728 131.292 46.9991 131.347 48.573 131.31C50.1468 131.273 51.5479 131.157 52.7823 130.958C54.0167 130.759 55.0567 130.48 55.8992 130.121C56.7417 129.763 57.3126 129.334 57.6119 128.841C58.2477 127.726 59.0901 126.985 60.1394 126.611C61.1855 126.24 62.5156 126.053 64.1265 126.053C65.4751 126.053 66.6139 126.252 67.552 126.648C68.4871 127.043 69.0302 127.64 69.1814 128.43C71.4281 128.332 73.6253 128.388 75.7763 128.599C77.9272 128.81 79.9023 129.23 81.6983 129.861C83.4944 130.492 85.0374 131.377 86.3305 132.517C86.3428 132.529 86.3551 132.538 86.3706 132.551C87.0248 133.133 87.247 133.92 87.1513 134.658H94.206C93.8048 134.171 93.6042 133.641 93.6042 133.071C93.6042 132.701 93.6875 132.336 93.8573 131.975C94.027 131.616 94.2955 131.295 94.672 131.01C95.0454 130.725 95.533 130.495 96.1317 130.324C96.7304 130.149 97.4587 130.063 98.3197 130.063H114.151V123.079H104.495C102.81 123.079 101.443 122.987 100.397 122.8C99.3473 122.613 98.5357 122.31 97.9555 121.89C97.3753 121.471 96.9803 120.901 96.7766 120.181C96.5699 119.464 96.468 118.557 96.468 117.47V108.7C96.468 107.633 96.5699 106.736 96.7766 106.007C96.9834 105.278 97.3753 104.693 97.9555 104.261C98.5357 103.829 99.3504 103.516 100.397 103.333C101.443 103.146 102.81 103.054 104.495 103.054H135.259C136.944 103.054 138.308 103.146 139.358 103.333C140.404 103.519 141.218 103.829 141.799 104.261C142.379 104.696 142.771 105.278 142.978 106.007C143.184 106.739 143.286 107.637 143.286 108.7V119.519C143.286 121.486 141.721 123.079 139.793 123.079H125.603V130.063H141.434C142.295 130.063 143.024 130.149 143.622 130.324C144.221 130.498 144.709 130.728 145.082 131.01C145.456 131.295 145.727 131.616 145.897 131.975C146.067 132.333 146.15 132.698 146.15 133.071C146.15 133.641 145.949 134.168 145.548 134.658H155.997C155.072 133.99 154.371 133.225 153.899 132.348C153.411 131.445 153.171 130.471 153.171 129.432C153.171 128.394 153.414 127.456 153.899 126.553C154.387 125.649 155.115 124.856 156.087 124.175C157.059 123.495 158.284 122.956 159.765 122.558C161.244 122.163 162.975 121.964 164.959 121.964H189.549C191.493 121.964 193.206 122.157 194.687 122.54C196.165 122.923 197.39 123.456 198.365 124.139C199.032 124.604 199.588 125.125 200.035 125.698C200.26 123.37 200.387 121.014 200.405 118.634C199.804 119.902 198.532 120.778 197.057 120.778H193.165C191.11 120.778 189.441 119.081 189.441 116.986V105.618C189.441 104.405 190.012 103.489 191.153 102.867C192.295 102.248 193.613 101.939 195.11 101.939C195.819 101.939 196.523 102.018 197.214 102.181C197.872 102.334 198.452 102.558 198.958 102.842C191.832 66.0978 159.272 38.3379 120.175 38.3379C81.078 38.3379 48.4835 66.1284 41.3825 102.904C42.1139 102.607 43.1292 102.456 44.4315 102.456H44.4099ZM151.412 106.469C151.412 105.207 151.955 104.291 153.041 103.719C154.127 103.149 155.454 102.864 157.028 102.864C158.602 102.864 159.911 103.149 160.957 103.719C162.003 104.288 162.527 105.204 162.527 106.469V112.936C162.527 113.359 162.62 113.622 162.808 113.736C162.997 113.846 163.407 113.904 164.043 113.904H181.223C182.945 113.904 184.151 114.195 184.842 114.777C185.534 115.359 185.882 116.048 185.882 116.839C185.882 117.629 185.528 118.312 184.815 118.882C184.102 119.452 182.904 119.737 181.223 119.737H159.386C156.692 119.737 154.689 119.372 153.377 118.64C152.066 117.911 151.412 116.64 151.412 114.832V106.469Z" fill="#F8EEAC"/>
<path d="M65.7978 133.595C65.1559 133.984 64.4523 134.337 63.6839 134.661H75.0744C74.4726 134.367 73.7937 134.128 73.0376 133.948C70.9052 133.439 68.4888 133.323 65.7947 133.595H65.7978Z" fill="#F8EEAC"/>
<path d="M43.8474 109.664H75.9605V108.476C75.9605 107.955 75.51 107.695 74.6119 107.695H44.409C42.7241 107.695 41.5174 107.453 40.7891 106.969C40.7552 106.947 40.7274 106.923 40.6966 106.901C40.5361 108.044 40.4003 109.196 40.2892 110.354C41.0237 109.894 42.2087 109.664 43.8505 109.664H43.8474Z" fill="#F8EEAC"/>
<path d="M74.2216 116.652C74.4469 116.379 74.6413 116.082 74.811 115.76C74.9808 115.439 75.1381 115.093 75.2894 114.719H43.852C42.1671 114.719 40.9604 114.489 40.2321 114.033C40.1581 113.987 40.0933 113.938 40.0285 113.889C39.9791 114.863 39.9544 115.84 39.939 116.823C40.4728 116.71 41.1024 116.652 41.8338 116.652H74.2247H74.2216Z" fill="#F8EEAC"/>
<path d="M126.79 6.73933C126.79 3.0173 123.75 0 120.001 0C116.251 0 113.211 3.0173 113.211 6.73933V26.3446C113.211 30.0667 116.251 33.084 120.001 33.084C123.75 33.084 126.79 30.0667 126.79 26.3446V6.73933Z" fill="#F8EEAC"/>
<path d="M26.5398 121.18H6.78925C3.03965 121.18 0 124.197 0 127.919C0 131.641 3.03965 134.658 6.78925 134.658H26.5398C30.2894 134.658 33.329 131.641 33.329 127.919C33.329 124.197 30.2894 121.18 26.5398 121.18Z" fill="#F8EEAC"/>
<path d="M233.212 121.18H213.461C209.712 121.18 206.672 124.197 206.672 127.919C206.672 131.641 209.712 134.658 213.461 134.658H233.212C236.962 134.658 240.001 131.641 240.001 127.919C240.001 124.197 236.962 121.18 233.212 121.18Z" fill="#F8EEAC"/>
<path d="M58.4778 23.0632C56.0676 20.2119 51.7853 19.84 48.9129 22.2325C46.0405 24.625 45.6659 28.8758 48.0761 31.7271L60.7715 46.7456C63.1817 49.5969 67.464 49.9688 70.3364 47.5763C73.2088 45.1838 73.5834 40.9329 71.1732 38.0817L58.4778 23.0632Z" fill="#F8EEAC"/>
<path d="M180.984 23.062L168.288 38.0805C165.878 40.9318 166.253 45.1826 169.125 47.5751C171.997 49.9676 176.28 49.5957 178.69 46.7445L191.385 31.7259C193.796 28.8747 193.421 24.6238 190.549 22.2313C187.676 19.8389 183.394 20.2108 180.984 23.062Z" fill="#F8EEAC"/>
<path d="M18.0975 66.8384C14.6992 65.2654 10.6597 66.7248 9.07507 70.0982C7.49042 73.4715 8.96067 77.4812 12.359 79.0542L30.259 87.3398C33.6573 88.9128 37.6968 87.4533 39.2814 84.08C40.8661 80.7067 39.3958 76.697 35.9976 75.124L18.0975 66.8384Z" fill="#F8EEAC"/>
<path d="M222.214 66.8389L204.313 75.1245C200.915 76.6975 199.445 80.7073 201.03 84.0806C202.614 87.4539 206.654 88.9133 210.052 87.3403L227.952 79.0547C231.35 77.4817 232.821 73.472 231.236 70.0987C229.651 66.7254 225.612 65.2659 222.214 66.8389Z" fill="#F8EEAC"/>
<path d="M186.722 127.238H167.746C166.586 127.238 165.762 127.468 165.277 127.924C164.79 128.384 164.549 128.883 164.549 129.429C164.549 129.974 164.793 130.513 165.277 130.969C165.762 131.429 166.586 131.656 167.746 131.656H186.722C187.882 131.656 188.706 131.426 189.191 130.969C189.456 130.718 189.648 130.452 189.768 130.17C189.814 129.851 189.864 129.53 189.907 129.211C189.851 128.752 189.611 128.32 189.191 127.924C188.703 127.465 187.879 127.238 186.722 127.238Z" fill="white"/>
<path d="M132.041 110.035C132.041 109.689 131.948 109.416 131.76 109.217C131.572 109.018 131.199 108.92 130.637 108.92H109.022C108.461 108.92 108.097 109.018 107.927 109.217C107.757 109.416 107.674 109.689 107.674 110.035V116.091C107.674 116.462 107.794 116.747 108.038 116.946C108.282 117.145 108.738 117.243 109.414 117.243H132.038V110.035H132.041Z" fill="white"/>
<path d="M80.0572 102.456C82.526 102.456 84.3036 102.704 85.3899 103.2C86.4762 103.696 87.0193 104.649 87.0193 106.061V110.482C87.0193 111.869 86.8496 113.083 86.5132 114.124C86.1768 115.166 85.7448 116.008 85.2232 116.651H85.6151C87.223 116.651 88.3555 116.924 89.0129 117.469C89.6671 118.015 89.9942 118.633 89.9942 119.326C89.9942 120.018 89.6578 120.664 88.9851 121.182C88.3123 121.703 87.189 121.963 85.6182 121.963H69.395V122.845C69.395 124.368 68.1822 125.602 66.6855 125.602H60.7634C59.2667 125.602 58.0539 124.368 58.0539 122.845V121.963H49.8265C49.9129 125.097 50.2092 128.182 50.6999 131.199C51.4374 131.141 52.1318 131.058 52.7799 130.954C54.0143 130.755 55.0543 130.476 55.8967 130.118C56.7392 129.759 57.3101 129.33 57.6095 128.837C58.2452 127.722 59.0877 126.981 60.1369 126.607C61.1831 126.236 62.5132 126.05 64.1241 126.05C65.4727 126.05 66.6114 126.249 67.5496 126.644C68.4846 127.039 69.0278 127.636 69.179 128.427C71.4256 128.329 73.6229 128.384 75.7738 128.595C77.9248 128.807 79.8998 129.226 81.6959 129.857C83.492 130.488 85.035 131.374 86.328 132.513C86.3404 132.525 86.3527 132.535 86.3681 132.547C87.0224 133.129 87.2446 133.916 87.1489 134.655H94.2036C93.8024 134.167 93.6018 133.637 93.6018 133.068C93.6018 132.697 93.6851 132.333 93.8548 131.971C94.0246 131.613 94.2931 131.291 94.6695 131.006C95.043 130.721 95.5305 130.491 96.1292 130.32C96.7279 130.145 97.4562 130.06 98.3172 130.06H114.149V123.075H104.492C102.807 123.075 101.44 122.983 100.394 122.796C99.3449 122.61 98.5332 122.306 97.9531 121.887C97.3729 121.467 96.9779 120.897 96.7742 120.177C96.5674 119.46 96.4656 118.554 96.4656 117.466V108.696C96.4656 107.63 96.5674 106.732 96.7742 106.003C96.981 105.274 97.3729 104.689 97.9531 104.257C98.5332 103.825 99.348 103.513 100.394 103.329C101.44 103.142 102.807 103.05 104.492 103.05H135.257C136.942 103.05 138.306 103.142 139.355 103.329C140.401 103.516 141.216 103.825 141.796 104.257C142.376 104.692 142.768 105.274 142.975 106.003C143.182 106.735 143.284 107.633 143.284 108.696V119.516C143.284 121.482 141.719 123.075 139.79 123.075H125.601V130.06H141.432C142.293 130.06 143.021 130.145 143.62 130.32C144.219 130.495 144.706 130.724 145.08 131.006C145.453 131.291 145.725 131.613 145.894 131.971C146.064 132.329 146.147 132.694 146.147 133.068C146.147 133.637 145.947 134.164 145.546 134.655H155.995C155.069 133.987 154.369 133.221 153.897 132.345C153.409 131.441 153.168 130.467 153.168 129.428C153.168 128.39 153.412 127.453 153.897 126.549C154.384 125.645 155.112 124.852 156.084 124.172C157.057 123.492 158.282 122.953 159.763 122.554C161.241 122.159 162.972 121.96 164.957 121.96H189.546C189.873 121.96 190.191 121.966 190.503 121.978C190.521 121.332 190.531 120.683 190.531 120.033C190.531 119.908 190.528 119.785 190.525 119.663C189.849 118.976 189.432 118.027 189.432 116.979V107.682C183.556 75.0023 154.782 50.1924 120.169 50.1924C87.4297 50.1924 59.9117 72.3923 52.0608 102.453H80.0727L80.0572 102.456ZM151.409 106.469C151.409 105.207 151.952 104.291 153.039 103.718C154.125 103.148 155.452 102.863 157.026 102.863C158.6 102.863 159.908 103.148 160.954 103.718C162 104.288 162.525 105.204 162.525 106.469V112.936C162.525 113.358 162.618 113.622 162.806 113.735C162.994 113.845 163.405 113.904 164.04 113.904H181.22C182.942 113.904 184.149 114.195 184.84 114.777C185.531 115.359 185.88 116.048 185.88 116.838C185.88 117.629 185.525 118.312 184.812 118.881C184.099 119.451 182.902 119.736 181.22 119.736H159.383C156.689 119.736 154.687 119.372 153.375 118.639C152.063 117.91 151.409 116.639 151.409 114.832V106.469Z" fill="white"/>
<path d="M74.8066 115.756C74.9763 115.435 75.1337 115.089 75.2849 114.715H49.995C49.9456 115.355 49.9086 116.001 49.8777 116.648H74.2172C74.4424 116.375 74.6369 116.078 74.8066 115.756Z" fill="white"/>
<path d="M75.9582 108.475C75.9582 107.955 75.5076 107.694 74.6096 107.694H50.8873C50.77 108.347 50.6651 109.005 50.5664 109.664H75.9582V108.475Z" fill="white"/>
<path d="M65.7963 133.594C65.1544 133.983 64.4508 134.336 63.6823 134.66H75.0728C74.4711 134.366 73.7921 134.127 73.0361 133.947C70.9036 133.438 68.4873 133.322 65.7932 133.594H65.7963Z" fill="white"/>
</svg>
