<svg width="200" height="118" viewBox="0 0 200 118" fill="none" xmlns="http://www.w3.org/2000/svg">
<path d="M198.484 117.321H198.623C198.633 117.281 198.639 117.241 198.648 117.201C198.595 117.241 198.54 117.281 198.484 117.321Z" fill="#F8EEAC"/>
<path fill-rule="evenodd" clip-rule="evenodd" d="M198.19 118C199.376 112.521 200 106.834 200 101C200 56.8172 164.183 21 120 21C75.8172 21 40 56.8172 40 101C40 106.834 40.6244 112.521 41.81 118H198.19Z" fill="#F8EEAC"/>
<path fill-rule="evenodd" clip-rule="evenodd" d="M187.921 118C189.279 112.558 190 106.863 190 101C190 62.3401 158.66 31 120 31C81.3401 31 50 62.3401 50 101C50 106.863 50.7208 112.558 52.0786 118H187.921Z" fill="white"/>
<path d="M26.5398 104.18H6.78925C3.03965 104.18 0 107.197 0 110.919C0 114.641 3.03965 117.658 6.78925 117.658H26.5398C30.2894 117.658 33.329 114.641 33.329 110.919C33.329 107.197 30.2894 104.18 26.5398 104.18Z" fill="#F8EEAC"/>
<path d="M18.0987 49.8384C14.7004 48.2654 10.6609 49.7248 9.07629 53.0982C7.49164 56.4715 8.96189 60.4812 12.3602 62.0542L30.2603 70.3398C33.6585 71.9128 37.698 70.4533 39.2827 67.08C40.8673 63.7067 39.3971 59.697 35.9988 58.124L18.0987 49.8384Z" fill="#F8EEAC"/>
<path d="M58.4767 6.06317C56.0665 3.21193 51.7842 2.84002 48.9118 5.2325C46.0394 7.62497 45.6648 11.8758 48.075 14.7271L60.7704 29.7456C63.1806 32.5969 67.4629 32.9688 70.3353 30.5763C73.2077 28.1838 73.5823 23.9329 71.1721 21.0817L58.4767 6.06317Z" fill="#F8EEAC"/>
</svg>
