<svg width="200" height="135" viewBox="0 0 200 135" fill="none" xmlns="http://www.w3.org/2000/svg">
<path d="M198.484 134.321H198.623C198.633 134.281 198.639 134.241 198.648 134.201C198.595 134.241 198.54 134.281 198.484 134.321Z" fill="#F8EEAC"/>
<path fill-rule="evenodd" clip-rule="evenodd" d="M198.19 135C199.376 129.521 200 123.834 200 118C200 73.8172 164.183 38 120 38C75.8172 38 40 73.8172 40 118C40 123.834 40.6244 129.521 41.81 135H198.19Z" fill="#F8EEAC"/>
<path fill-rule="evenodd" clip-rule="evenodd" d="M187.921 135C189.279 129.558 190 123.863 190 118C190 79.3401 158.66 48 120 48C81.3401 48 50 79.3401 50 118C50 123.863 50.7208 129.558 52.0786 135H187.921Z" fill="white"/>
<path d="M26.5398 121.18H6.78925C3.03965 121.18 0 124.197 0 127.919C0 131.641 3.03965 134.658 6.78925 134.658H26.5398C30.2894 134.658 33.329 131.641 33.329 127.919C33.329 124.197 30.2894 121.18 26.5398 121.18Z" fill="#F8EEAC"/>
<path d="M18.0987 66.8384C14.7004 65.2654 10.6609 66.7248 9.07629 70.0982C7.49164 73.4715 8.96189 77.4812 12.3602 79.0542L30.2603 87.3398C33.6585 88.9128 37.698 87.4533 39.2827 84.08C40.8673 80.7067 39.3971 76.697 35.9988 75.124L18.0987 66.8384Z" fill="#F8EEAC"/>
<path d="M58.4767 23.0632C56.0665 20.2119 51.7842 19.84 48.9118 22.2325C46.0394 24.625 45.6648 28.8758 48.075 31.7271L60.7704 46.7456C63.1806 49.5969 67.4629 49.9688 70.3353 47.5763C73.2077 45.1838 73.5823 40.9329 71.1721 38.0817L58.4767 23.0632Z" fill="#F8EEAC"/>
<path d="M126.789 6.73933C126.789 3.0173 123.75 0 120 0C116.251 0 113.211 3.0173 113.211 6.73933V26.3446C113.211 30.0667 116.251 33.084 120 33.084C123.75 33.084 126.789 30.0667 126.789 26.3446V6.73933Z" fill="#F8EEAC"/>
</svg>
