<svg width="160" height="97" viewBox="0 0 160 97" fill="none" xmlns="http://www.w3.org/2000/svg">
<path d="M158.484 96.3206H158.623C158.633 96.2808 158.639 96.241 158.648 96.2012C158.595 96.241 158.54 96.2808 158.484 96.3206Z" fill="#F8EEAC"/>
<path fill-rule="evenodd" clip-rule="evenodd" d="M158.19 97C159.376 91.5213 160 85.8336 160 80C160 35.8172 124.183 0 80 0C35.8172 0 0 35.8172 0 80C0 85.8336 0.624386 91.5213 1.80997 97H158.19Z" fill="#F8EEAC"/>
<path fill-rule="evenodd" clip-rule="evenodd" d="M147.921 97C149.279 91.5575 150 85.8629 150 80C150 41.3401 118.66 10 80 10C41.3401 10 10 41.3401 10 80C10 85.8629 10.7208 91.5575 12.0786 97H147.921Z" fill="white"/>
</svg>
