<svg width="260" height="200" viewBox="0 0 260 200" fill="none" xmlns="http://www.w3.org/2000/svg">
<g filter="url(#filter0_i_390_8116)">
<ellipse cx="134.374" cy="127.331" rx="53.4604" ry="53.4268" fill="url(#paint0_linear_390_8116)"/>
</g>
<g filter="url(#filter1_ii_390_8116)">
<path d="M67.0752 67.9675C59.2779 56.2897 62.4274 40.5076 74.1098 32.7171L75.0267 32.1057C86.709 24.3152 102.5 27.4665 110.298 39.1443C111.077 40.3121 110.762 41.8903 109.594 42.6694L70.6023 68.6714C69.434 69.4504 67.8549 69.1353 67.0752 67.9675Z" fill="url(#paint1_linear_390_8116)"/>
</g>
<g filter="url(#filter2_ii_390_8116)">
<path d="M200.722 67.9675C208.519 56.2897 205.369 40.5076 193.687 32.7171L192.77 32.1057C181.088 24.3152 165.297 27.4665 157.499 39.1443C156.72 40.3121 157.035 41.8903 158.203 42.6694L197.195 68.6714C198.363 69.4504 199.942 69.1353 200.722 67.9675Z" fill="url(#paint2_linear_390_8116)"/>
</g>
<g filter="url(#filter3_ii_390_8116)">
<path fill-rule="evenodd" clip-rule="evenodd" d="M161.055 190.355C152.739 193.986 143.555 196 133.901 196C124.249 196 115.066 193.987 106.751 190.357C107.582 192.669 107.721 195.253 106.992 197.795C106.623 199.083 105.28 199.828 103.992 199.458L73.6753 190.765C72.3874 190.396 71.6427 189.052 72.012 187.764C73.8585 181.325 80.5759 177.601 87.0156 179.448L90.7177 180.509C75.6062 168.051 65.9727 149.186 65.9727 128.072C65.9727 90.5558 96.3852 60.1433 133.901 60.1433C171.417 60.1433 201.829 90.5558 201.829 128.072C201.829 149.187 192.194 168.053 177.081 180.512L180.79 179.448C187.23 177.602 193.947 181.325 195.794 187.765C196.163 189.053 195.418 190.396 194.13 190.766L163.814 199.459C162.526 199.828 161.183 199.083 160.813 197.795C160.084 195.253 160.223 192.667 161.055 190.355ZM187.081 127.809C187.081 157.049 163.377 180.753 134.137 180.753C104.897 180.753 81.1927 157.049 81.1927 127.809C81.1927 98.5686 104.897 74.8647 134.137 74.8647C163.377 74.8647 187.081 98.5686 187.081 127.809Z" fill="url(#paint3_linear_390_8116)"/>
</g>
<g filter="url(#filter4_ii_390_8116)">
<path d="M131.604 91.4255C131.604 90.0977 132.681 89.0212 134.009 89.0212C135.337 89.0212 136.413 90.0977 136.413 91.4255V125.061C136.413 126.388 135.337 127.465 134.009 127.465C132.681 127.465 131.604 126.388 131.604 125.061V91.4255Z" fill="url(#paint4_linear_390_8116)"/>
<path d="M116.97 143.236C115.312 144.338 113.073 143.888 111.97 142.231C110.867 140.573 111.317 138.336 112.975 137.234L130.992 125.256C132.65 124.153 134.888 124.603 135.991 126.261C137.094 127.918 136.645 130.155 134.987 131.257L116.97 143.236Z" fill="url(#paint5_linear_390_8116)"/>
<circle cx="134.016" cy="127.465" r="8.41216" fill="url(#paint6_linear_390_8116)"/>
</g>
<g filter="url(#filter5_ii_390_8116)">
<path d="M56.5088 31.7691C60.7889 26.1136 66.4572 22.3654 72.1683 20.8728C73.4237 20.5447 74.6232 21.4538 74.7982 22.7473C74.9683 24.0044 74.1039 25.154 72.8924 25.5038C68.3345 26.82 63.7507 29.9638 60.2276 34.6189C56.7354 39.2332 54.9427 44.464 54.8633 49.2027C54.8422 50.4647 53.9715 51.5983 52.7282 51.7666C51.4356 51.9415 50.2414 51.0095 50.2306 49.6973C50.1821 43.8033 52.2671 37.3738 56.5088 31.7691Z" fill="url(#paint7_linear_390_8116)"/>
</g>
<g filter="url(#filter6_ii_390_8116)">
<path d="M212.772 31.7691C208.492 26.1136 202.824 22.3654 197.113 20.8728C195.858 20.5447 194.658 21.4538 194.483 22.7473C194.313 24.0044 195.177 25.154 196.389 25.5038C200.947 26.82 205.531 29.9638 209.054 34.6189C212.546 39.2332 214.339 44.464 214.418 49.2027C214.439 50.4647 215.31 51.5983 216.553 51.7666C217.846 51.9415 219.04 51.0095 219.051 49.6973C219.099 43.8033 217.014 37.3738 212.772 31.7691Z" fill="url(#paint8_linear_390_8116)"/>
</g>
<g filter="url(#filter7_ii_390_8116)">
<path d="M48.0565 25.0867C51.6303 20.5556 56.3469 17.5403 61.0892 16.3245C62.1312 16.0574 63.1215 16.7772 63.261 17.8082C63.3965 18.8101 62.6749 19.7308 61.6691 20.0149C57.8832 21.0845 54.0677 23.6131 51.1255 27.3434C48.2091 31.0409 46.6998 35.2231 46.6139 39.0049C46.591 40.0114 45.8646 40.9192 44.8334 41.0588C43.7615 41.2038 42.7759 40.4659 42.7726 39.4196C42.7578 34.7168 44.5146 29.5773 48.0565 25.0867Z" fill="url(#paint9_linear_390_8116)"/>
<path d="M74.593 44.7489C74.6185 44.7169 74.6439 44.6849 74.6693 44.6527C74.6946 44.6206 74.7199 44.5884 74.7451 44.5562L74.593 44.7489Z" fill="url(#paint10_linear_390_8116)"/>
</g>
<g filter="url(#filter8_ii_390_8116)">
<path d="M221.225 25.0867C217.651 20.5556 212.934 17.5403 208.192 16.3245C207.15 16.0574 206.16 16.7772 206.02 17.8082C205.885 18.8101 206.606 19.7308 207.612 20.0149C211.398 21.0845 215.214 23.6131 218.156 27.3434C221.072 31.0409 222.581 35.2231 222.667 39.0049C222.69 40.0114 223.417 40.9192 224.448 41.0588C225.52 41.2038 226.505 40.4659 226.509 39.4196C226.523 34.7168 224.767 29.5773 221.225 25.0867Z" fill="url(#paint11_linear_390_8116)"/>
<path d="M194.688 44.7489C194.663 44.7169 194.637 44.6849 194.612 44.6527C194.587 44.6206 194.561 44.5884 194.536 44.5562L194.688 44.7489Z" fill="url(#paint12_linear_390_8116)"/>
</g>
<g filter="url(#filter9_ii_390_8116)">
<path d="M24.0887 89.8654C23.0525 89.3679 22.6478 88.1015 23.2035 87.0954L28.4082 77.6723C28.9639 76.6661 30.2514 76.3344 31.2242 76.9466L63.4377 97.2198C64.335 97.7846 64.6357 98.9514 64.1231 99.8795L61.0181 105.501C60.5055 106.429 59.3577 106.796 58.4019 106.337L24.0887 89.8654Z" fill="url(#paint13_linear_390_8116)"/>
</g>
<g filter="url(#filter10_ii_390_8116)">
<path d="M235.567 132.958C236.447 132.222 236.528 130.897 235.745 130.059L230.436 124.379C229.652 123.541 228.325 123.533 227.531 124.361L206.046 146.772C205.311 147.539 205.303 148.746 206.028 149.522L209.015 152.717C209.74 153.493 210.945 153.567 211.759 152.885L235.567 132.958Z" fill="url(#paint14_linear_390_8116)"/>
</g>
<g filter="url(#filter11_ii_390_8116)">
<path d="M24.0708 112.137C22.9435 111.953 22.1992 110.864 22.4372 109.746L23.4374 105.052C23.6754 103.935 24.799 103.244 25.9035 103.535L51.0728 110.173C52.1048 110.445 52.7413 111.48 52.5189 112.524L52.0386 114.778C51.8162 115.822 50.8133 116.507 49.76 116.335L24.0708 112.137Z" fill="url(#paint15_linear_390_8116)"/>
</g>
<g filter="url(#filter12_ii_390_8116)">
<path d="M230.607 157.12C231.651 156.663 232.103 155.428 231.601 154.405L230.358 151.877C229.855 150.854 228.6 150.458 227.601 151.006L209.171 161.116C208.233 161.631 207.866 162.792 208.338 163.752L208.751 164.592C209.223 165.552 210.367 165.97 211.347 165.542L230.607 157.12Z" fill="url(#paint16_linear_390_8116)"/>
</g>
<defs>
<filter id="filter0_i_390_8116" x="80.9141" y="72.9041" width="107.921" height="107.854" filterUnits="userSpaceOnUse" color-interpolation-filters="sRGB">
<feFlood flood-opacity="0" result="BackgroundImageFix"/>
<feBlend mode="normal" in="SourceGraphic" in2="BackgroundImageFix" result="shape"/>
<feColorMatrix in="SourceAlpha" type="matrix" values="0 0 0 0 0 0 0 0 0 0 0 0 0 0 0 0 0 0 127 0" result="hardAlpha"/>
<feOffset dx="1" dy="-1"/>
<feGaussianBlur stdDeviation="2"/>
<feComposite in2="hardAlpha" operator="arithmetic" k2="-1" k3="1"/>
<feColorMatrix type="matrix" values="0 0 0 0 1 0 0 0 0 1 0 0 0 0 1 0 0 0 0.25 0"/>
<feBlend mode="normal" in2="shape" result="effect1_innerShadow_390_8116"/>
</filter>
<filter id="filter1_ii_390_8116" x="59.7937" y="26.8297" width="53.9321" height="43.2693" filterUnits="userSpaceOnUse" color-interpolation-filters="sRGB">
<feFlood flood-opacity="0" result="BackgroundImageFix"/>
<feBlend mode="normal" in="SourceGraphic" in2="BackgroundImageFix" result="shape"/>
<feColorMatrix in="SourceAlpha" type="matrix" values="0 0 0 0 0 0 0 0 0 0 0 0 0 0 0 0 0 0 127 0" result="hardAlpha"/>
<feOffset dx="3" dy="1"/>
<feGaussianBlur stdDeviation="2.5"/>
<feComposite in2="hardAlpha" operator="arithmetic" k2="-1" k3="1"/>
<feColorMatrix type="matrix" values="0 0 0 0 1 0 0 0 0 1 0 0 0 0 1 0 0 0 0.25 0"/>
<feBlend mode="normal" in2="shape" result="effect1_innerShadow_390_8116"/>
<feColorMatrix in="SourceAlpha" type="matrix" values="0 0 0 0 0 0 0 0 0 0 0 0 0 0 0 0 0 0 127 0" result="hardAlpha"/>
<feOffset dx="-3" dy="-1"/>
<feGaussianBlur stdDeviation="2"/>
<feComposite in2="hardAlpha" operator="arithmetic" k2="-1" k3="1"/>
<feColorMatrix type="matrix" values="0 0 0 0 0 0 0 0 0 0 0 0 0 0 0 0 0 0 0.25 0"/>
<feBlend mode="normal" in2="effect1_innerShadow_390_8116" result="effect2_innerShadow_390_8116"/>
</filter>
<filter id="filter2_ii_390_8116" x="155.071" y="24.8297" width="52.9321" height="45.2693" filterUnits="userSpaceOnUse" color-interpolation-filters="sRGB">
<feFlood flood-opacity="0" result="BackgroundImageFix"/>
<feBlend mode="normal" in="SourceGraphic" in2="BackgroundImageFix" result="shape"/>
<feColorMatrix in="SourceAlpha" type="matrix" values="0 0 0 0 0 0 0 0 0 0 0 0 0 0 0 0 0 0 127 0" result="hardAlpha"/>
<feOffset dx="4" dy="1"/>
<feGaussianBlur stdDeviation="1.5"/>
<feComposite in2="hardAlpha" operator="arithmetic" k2="-1" k3="1"/>
<feColorMatrix type="matrix" values="0 0 0 0 1 0 0 0 0 1 0 0 0 0 1 0 0 0 0.25 0"/>
<feBlend mode="normal" in2="shape" result="effect1_innerShadow_390_8116"/>
<feColorMatrix in="SourceAlpha" type="matrix" values="0 0 0 0 0 0 0 0 0 0 0 0 0 0 0 0 0 0 127 0" result="hardAlpha"/>
<feOffset dx="-2" dy="-3"/>
<feGaussianBlur stdDeviation="2"/>
<feComposite in2="hardAlpha" operator="arithmetic" k2="-1" k3="1"/>
<feColorMatrix type="matrix" values="0 0 0 0 0 0 0 0 0 0 0 0 0 0 0 0 0 0 0.25 0"/>
<feBlend mode="normal" in2="effect1_innerShadow_390_8116" result="effect2_innerShadow_390_8116"/>
</filter>
<filter id="filter3_ii_390_8116" x="65.9727" y="58.3388" width="137.661" height="142.418" filterUnits="userSpaceOnUse" color-interpolation-filters="sRGB">
<feFlood flood-opacity="0" result="BackgroundImageFix"/>
<feBlend mode="normal" in="SourceGraphic" in2="BackgroundImageFix" result="shape"/>
<feColorMatrix in="SourceAlpha" type="matrix" values="0 0 0 0 0 0 0 0 0 0 0 0 0 0 0 0 0 0 127 0" result="hardAlpha"/>
<feOffset dx="1.80451" dy="1.20301"/>
<feGaussianBlur stdDeviation="1.20301"/>
<feComposite in2="hardAlpha" operator="arithmetic" k2="-1" k3="1"/>
<feColorMatrix type="matrix" values="0 0 0 0 1 0 0 0 0 1 0 0 0 0 1 0 0 0 0.25 0"/>
<feBlend mode="normal" in2="shape" result="effect1_innerShadow_390_8116"/>
<feColorMatrix in="SourceAlpha" type="matrix" values="0 0 0 0 0 0 0 0 0 0 0 0 0 0 0 0 0 0 127 0" result="hardAlpha"/>
<feOffset dy="-1.80451"/>
<feGaussianBlur stdDeviation="1.80451"/>
<feComposite in2="hardAlpha" operator="arithmetic" k2="-1" k3="1"/>
<feColorMatrix type="matrix" values="0 0 0 0 0 0 0 0 0 0 0 0 0 0 0 0 0 0 0.25 0"/>
<feBlend mode="normal" in2="effect1_innerShadow_390_8116" result="effect2_innerShadow_390_8116"/>
</filter>
<filter id="filter4_ii_390_8116" x="111.366" y="87.2167" width="32.8663" height="57.8253" filterUnits="userSpaceOnUse" color-interpolation-filters="sRGB">
<feFlood flood-opacity="0" result="BackgroundImageFix"/>
<feBlend mode="normal" in="SourceGraphic" in2="BackgroundImageFix" result="shape"/>
<feColorMatrix in="SourceAlpha" type="matrix" values="0 0 0 0 0 0 0 0 0 0 0 0 0 0 0 0 0 0 127 0" result="hardAlpha"/>
<feOffset dx="1.80451" dy="1.20301"/>
<feGaussianBlur stdDeviation="1.20301"/>
<feComposite in2="hardAlpha" operator="arithmetic" k2="-1" k3="1"/>
<feColorMatrix type="matrix" values="0 0 0 0 1 0 0 0 0 1 0 0 0 0 1 0 0 0 0.25 0"/>
<feBlend mode="normal" in2="shape" result="effect1_innerShadow_390_8116"/>
<feColorMatrix in="SourceAlpha" type="matrix" values="0 0 0 0 0 0 0 0 0 0 0 0 0 0 0 0 0 0 127 0" result="hardAlpha"/>
<feOffset dy="-1.80451"/>
<feGaussianBlur stdDeviation="1.80451"/>
<feComposite in2="hardAlpha" operator="arithmetic" k2="-1" k3="1"/>
<feColorMatrix type="matrix" values="0 0 0 0 0 0 0 0 0 0 0 0 0 0 0 0 0 0 0.25 0"/>
<feBlend mode="normal" in2="effect1_innerShadow_390_8116" result="effect2_innerShadow_390_8116"/>
</filter>
<filter id="filter5_ii_390_8116" x="49.2297" y="18.8054" width="26.5898" height="34.9823" filterUnits="userSpaceOnUse" color-interpolation-filters="sRGB">
<feFlood flood-opacity="0" result="BackgroundImageFix"/>
<feBlend mode="normal" in="SourceGraphic" in2="BackgroundImageFix" result="shape"/>
<feColorMatrix in="SourceAlpha" type="matrix" values="0 0 0 0 0 0 0 0 0 0 0 0 0 0 0 0 0 0 127 0" result="hardAlpha"/>
<feOffset dx="-1" dy="-2"/>
<feGaussianBlur stdDeviation="1"/>
<feComposite in2="hardAlpha" operator="arithmetic" k2="-1" k3="1"/>
<feColorMatrix type="matrix" values="0 0 0 0 0 0 0 0 0 0 0 0 0 0 0 0 0 0 0.25 0"/>
<feBlend mode="normal" in2="shape" result="effect1_innerShadow_390_8116"/>
<feColorMatrix in="SourceAlpha" type="matrix" values="0 0 0 0 0 0 0 0 0 0 0 0 0 0 0 0 0 0 127 0" result="hardAlpha"/>
<feOffset dx="1" dy="2"/>
<feGaussianBlur stdDeviation="2"/>
<feComposite in2="hardAlpha" operator="arithmetic" k2="-1" k3="1"/>
<feColorMatrix type="matrix" values="0 0 0 0 1 0 0 0 0 1 0 0 0 0 1 0 0 0 0.25 0"/>
<feBlend mode="normal" in2="effect1_innerShadow_390_8116" result="effect2_innerShadow_390_8116"/>
</filter>
<filter id="filter6_ii_390_8116" x="193.462" y="18.8054" width="26.5898" height="34.9823" filterUnits="userSpaceOnUse" color-interpolation-filters="sRGB">
<feFlood flood-opacity="0" result="BackgroundImageFix"/>
<feBlend mode="normal" in="SourceGraphic" in2="BackgroundImageFix" result="shape"/>
<feColorMatrix in="SourceAlpha" type="matrix" values="0 0 0 0 0 0 0 0 0 0 0 0 0 0 0 0 0 0 127 0" result="hardAlpha"/>
<feOffset dx="-1" dy="-2"/>
<feGaussianBlur stdDeviation="1"/>
<feComposite in2="hardAlpha" operator="arithmetic" k2="-1" k3="1"/>
<feColorMatrix type="matrix" values="0 0 0 0 0 0 0 0 0 0 0 0 0 0 0 0 0 0 0.25 0"/>
<feBlend mode="normal" in2="shape" result="effect1_innerShadow_390_8116"/>
<feColorMatrix in="SourceAlpha" type="matrix" values="0 0 0 0 0 0 0 0 0 0 0 0 0 0 0 0 0 0 127 0" result="hardAlpha"/>
<feOffset dx="1" dy="2"/>
<feGaussianBlur stdDeviation="2"/>
<feComposite in2="hardAlpha" operator="arithmetic" k2="-1" k3="1"/>
<feColorMatrix type="matrix" values="0 0 0 0 1 0 0 0 0 1 0 0 0 0 1 0 0 0 0.25 0"/>
<feBlend mode="normal" in2="effect1_innerShadow_390_8116" result="effect2_innerShadow_390_8116"/>
</filter>
<filter id="filter7_ii_390_8116" x="41.7725" y="14.2685" width="33.9727" height="32.4804" filterUnits="userSpaceOnUse" color-interpolation-filters="sRGB">
<feFlood flood-opacity="0" result="BackgroundImageFix"/>
<feBlend mode="normal" in="SourceGraphic" in2="BackgroundImageFix" result="shape"/>
<feColorMatrix in="SourceAlpha" type="matrix" values="0 0 0 0 0 0 0 0 0 0 0 0 0 0 0 0 0 0 127 0" result="hardAlpha"/>
<feOffset dx="-1" dy="-2"/>
<feGaussianBlur stdDeviation="1"/>
<feComposite in2="hardAlpha" operator="arithmetic" k2="-1" k3="1"/>
<feColorMatrix type="matrix" values="0 0 0 0 0 0 0 0 0 0 0 0 0 0 0 0 0 0 0.25 0"/>
<feBlend mode="normal" in2="shape" result="effect1_innerShadow_390_8116"/>
<feColorMatrix in="SourceAlpha" type="matrix" values="0 0 0 0 0 0 0 0 0 0 0 0 0 0 0 0 0 0 127 0" result="hardAlpha"/>
<feOffset dx="1" dy="2"/>
<feGaussianBlur stdDeviation="2"/>
<feComposite in2="hardAlpha" operator="arithmetic" k2="-1" k3="1"/>
<feColorMatrix type="matrix" values="0 0 0 0 1 0 0 0 0 1 0 0 0 0 1 0 0 0 0.25 0"/>
<feBlend mode="normal" in2="effect1_innerShadow_390_8116" result="effect2_innerShadow_390_8116"/>
</filter>
<filter id="filter8_ii_390_8116" x="193.536" y="14.2685" width="33.9727" height="32.4804" filterUnits="userSpaceOnUse" color-interpolation-filters="sRGB">
<feFlood flood-opacity="0" result="BackgroundImageFix"/>
<feBlend mode="normal" in="SourceGraphic" in2="BackgroundImageFix" result="shape"/>
<feColorMatrix in="SourceAlpha" type="matrix" values="0 0 0 0 0 0 0 0 0 0 0 0 0 0 0 0 0 0 127 0" result="hardAlpha"/>
<feOffset dx="-1" dy="-2"/>
<feGaussianBlur stdDeviation="1"/>
<feComposite in2="hardAlpha" operator="arithmetic" k2="-1" k3="1"/>
<feColorMatrix type="matrix" values="0 0 0 0 0 0 0 0 0 0 0 0 0 0 0 0 0 0 0.25 0"/>
<feBlend mode="normal" in2="shape" result="effect1_innerShadow_390_8116"/>
<feColorMatrix in="SourceAlpha" type="matrix" values="0 0 0 0 0 0 0 0 0 0 0 0 0 0 0 0 0 0 127 0" result="hardAlpha"/>
<feOffset dx="1" dy="2"/>
<feGaussianBlur stdDeviation="2"/>
<feComposite in2="hardAlpha" operator="arithmetic" k2="-1" k3="1"/>
<feColorMatrix type="matrix" values="0 0 0 0 1 0 0 0 0 1 0 0 0 0 1 0 0 0 0.25 0"/>
<feBlend mode="normal" in2="effect1_innerShadow_390_8116" result="effect2_innerShadow_390_8116"/>
</filter>
<filter id="filter9_ii_390_8116" x="21.9536" y="74.6389" width="44.4189" height="32.8955" filterUnits="userSpaceOnUse" color-interpolation-filters="sRGB">
<feFlood flood-opacity="0" result="BackgroundImageFix"/>
<feBlend mode="normal" in="SourceGraphic" in2="BackgroundImageFix" result="shape"/>
<feColorMatrix in="SourceAlpha" type="matrix" values="0 0 0 0 0 0 0 0 0 0 0 0 0 0 0 0 0 0 127 0" result="hardAlpha"/>
<feOffset dx="-1" dy="-2"/>
<feGaussianBlur stdDeviation="1.5"/>
<feComposite in2="hardAlpha" operator="arithmetic" k2="-1" k3="1"/>
<feColorMatrix type="matrix" values="0 0 0 0 0 0 0 0 0 0 0 0 0 0 0 0 0 0 0.25 0"/>
<feBlend mode="normal" in2="shape" result="effect1_innerShadow_390_8116"/>
<feColorMatrix in="SourceAlpha" type="matrix" values="0 0 0 0 0 0 0 0 0 0 0 0 0 0 0 0 0 0 127 0" result="hardAlpha"/>
<feOffset dx="2" dy="1"/>
<feGaussianBlur stdDeviation="2"/>
<feComposite in2="hardAlpha" operator="arithmetic" k2="-1" k3="1"/>
<feColorMatrix type="matrix" values="0 0 0 0 1 0 0 0 0 1 0 0 0 0 1 0 0 0 0.25 0"/>
<feBlend mode="normal" in2="effect1_innerShadow_390_8116" result="effect2_innerShadow_390_8116"/>
</filter>
<filter id="filter10_ii_390_8116" x="204.489" y="121.745" width="33.7944" height="32.6064" filterUnits="userSpaceOnUse" color-interpolation-filters="sRGB">
<feFlood flood-opacity="0" result="BackgroundImageFix"/>
<feBlend mode="normal" in="SourceGraphic" in2="BackgroundImageFix" result="shape"/>
<feColorMatrix in="SourceAlpha" type="matrix" values="0 0 0 0 0 0 0 0 0 0 0 0 0 0 0 0 0 0 127 0" result="hardAlpha"/>
<feOffset dx="-1" dy="-2"/>
<feGaussianBlur stdDeviation="1.5"/>
<feComposite in2="hardAlpha" operator="arithmetic" k2="-1" k3="1"/>
<feColorMatrix type="matrix" values="0 0 0 0 0 0 0 0 0 0 0 0 0 0 0 0 0 0 0.25 0"/>
<feBlend mode="normal" in2="shape" result="effect1_innerShadow_390_8116"/>
<feColorMatrix in="SourceAlpha" type="matrix" values="0 0 0 0 0 0 0 0 0 0 0 0 0 0 0 0 0 0 127 0" result="hardAlpha"/>
<feOffset dx="2" dy="1"/>
<feGaussianBlur stdDeviation="2"/>
<feComposite in2="hardAlpha" operator="arithmetic" k2="-1" k3="1"/>
<feColorMatrix type="matrix" values="0 0 0 0 1 0 0 0 0 1 0 0 0 0 1 0 0 0 0.25 0"/>
<feBlend mode="normal" in2="effect1_innerShadow_390_8116" result="effect2_innerShadow_390_8116"/>
</filter>
<filter id="filter11_ii_390_8116" x="21.3928" y="101.468" width="33.1704" height="15.8928" filterUnits="userSpaceOnUse" color-interpolation-filters="sRGB">
<feFlood flood-opacity="0" result="BackgroundImageFix"/>
<feBlend mode="normal" in="SourceGraphic" in2="BackgroundImageFix" result="shape"/>
<feColorMatrix in="SourceAlpha" type="matrix" values="0 0 0 0 0 0 0 0 0 0 0 0 0 0 0 0 0 0 127 0" result="hardAlpha"/>
<feOffset dx="-1" dy="-2"/>
<feGaussianBlur stdDeviation="1.5"/>
<feComposite in2="hardAlpha" operator="arithmetic" k2="-1" k3="1"/>
<feColorMatrix type="matrix" values="0 0 0 0 0 0 0 0 0 0 0 0 0 0 0 0 0 0 0.25 0"/>
<feBlend mode="normal" in2="shape" result="effect1_innerShadow_390_8116"/>
<feColorMatrix in="SourceAlpha" type="matrix" values="0 0 0 0 0 0 0 0 0 0 0 0 0 0 0 0 0 0 127 0" result="hardAlpha"/>
<feOffset dx="2" dy="1"/>
<feGaussianBlur stdDeviation="2"/>
<feComposite in2="hardAlpha" operator="arithmetic" k2="-1" k3="1"/>
<feColorMatrix type="matrix" values="0 0 0 0 1 0 0 0 0 1 0 0 0 0 1 0 0 0 0.25 0"/>
<feBlend mode="normal" in2="effect1_innerShadow_390_8116" result="effect2_innerShadow_390_8116"/>
</filter>
<filter id="filter12_ii_390_8116" x="207.132" y="148.759" width="26.6741" height="17.9503" filterUnits="userSpaceOnUse" color-interpolation-filters="sRGB">
<feFlood flood-opacity="0" result="BackgroundImageFix"/>
<feBlend mode="normal" in="SourceGraphic" in2="BackgroundImageFix" result="shape"/>
<feColorMatrix in="SourceAlpha" type="matrix" values="0 0 0 0 0 0 0 0 0 0 0 0 0 0 0 0 0 0 127 0" result="hardAlpha"/>
<feOffset dx="-1" dy="-2"/>
<feGaussianBlur stdDeviation="1.5"/>
<feComposite in2="hardAlpha" operator="arithmetic" k2="-1" k3="1"/>
<feColorMatrix type="matrix" values="0 0 0 0 0 0 0 0 0 0 0 0 0 0 0 0 0 0 0.25 0"/>
<feBlend mode="normal" in2="shape" result="effect1_innerShadow_390_8116"/>
<feColorMatrix in="SourceAlpha" type="matrix" values="0 0 0 0 0 0 0 0 0 0 0 0 0 0 0 0 0 0 127 0" result="hardAlpha"/>
<feOffset dx="2" dy="1"/>
<feGaussianBlur stdDeviation="2"/>
<feComposite in2="hardAlpha" operator="arithmetic" k2="-1" k3="1"/>
<feColorMatrix type="matrix" values="0 0 0 0 1 0 0 0 0 1 0 0 0 0 1 0 0 0 0.25 0"/>
<feBlend mode="normal" in2="effect1_innerShadow_390_8116" result="effect2_innerShadow_390_8116"/>
</filter>
<linearGradient id="paint0_linear_390_8116" x1="109.165" y1="82.157" x2="164.751" y2="164.284" gradientUnits="userSpaceOnUse">
<stop stop-color="#FCF5C7"/>
<stop offset="1" stop-color="#F9EC92"/>
</linearGradient>
<linearGradient id="paint1_linear_390_8116" x1="62.2175" y1="42.2904" x2="93.227" y2="63.7031" gradientUnits="userSpaceOnUse">
<stop stop-color="#FFB636"/>
<stop offset="1" stop-color="#F19C07"/>
</linearGradient>
<linearGradient id="paint2_linear_390_8116" x1="205.579" y1="42.2904" x2="174.57" y2="63.7031" gradientUnits="userSpaceOnUse">
<stop stop-color="#FFB636"/>
<stop offset="1" stop-color="#F19C07"/>
</linearGradient>
<linearGradient id="paint3_linear_390_8116" x1="92.6944" y1="66.7829" x2="186.797" y2="194.263" gradientUnits="userSpaceOnUse">
<stop stop-color="#FFB636"/>
<stop offset="1" stop-color="#F19C07"/>
</linearGradient>
<linearGradient id="paint4_linear_390_8116" x1="132.55" y1="90.9001" x2="141.73" y2="92.4554" gradientUnits="userSpaceOnUse">
<stop stop-color="#FFC64C"/>
<stop offset="1" stop-color="#FFA911"/>
</linearGradient>
<linearGradient id="paint5_linear_390_8116" x1="114.356" y1="143.27" x2="110.905" y2="130.314" gradientUnits="userSpaceOnUse">
<stop stop-color="#FFC64C"/>
<stop offset="1" stop-color="#FFA911"/>
</linearGradient>
<linearGradient id="paint6_linear_390_8116" x1="128.913" y1="119.875" x2="140.566" y2="135.662" gradientUnits="userSpaceOnUse">
<stop stop-color="#FFC64C"/>
<stop offset="1" stop-color="#FFA911"/>
</linearGradient>
<linearGradient id="paint7_linear_390_8116" x1="60.6256" y1="22.431" x2="64.4076" y2="50.1744" gradientUnits="userSpaceOnUse">
<stop stop-color="#D47F0E"/>
<stop offset="1" stop-color="#BF6D00"/>
</linearGradient>
<linearGradient id="paint8_linear_390_8116" x1="208.656" y1="22.431" x2="204.874" y2="50.1744" gradientUnits="userSpaceOnUse">
<stop stop-color="#D47F0E"/>
<stop offset="1" stop-color="#BF6D00"/>
</linearGradient>
<linearGradient id="paint9_linear_390_8116" x1="55.358" y1="17.0936" x2="59.4101" y2="46.8187" gradientUnits="userSpaceOnUse">
<stop stop-color="#D47F0E"/>
<stop offset="1" stop-color="#BF6D00"/>
</linearGradient>
<linearGradient id="paint10_linear_390_8116" x1="55.358" y1="17.0936" x2="59.4101" y2="46.8187" gradientUnits="userSpaceOnUse">
<stop stop-color="#D47F0E"/>
<stop offset="1" stop-color="#BF6D00"/>
</linearGradient>
<linearGradient id="paint11_linear_390_8116" x1="213.923" y1="17.0936" x2="209.871" y2="46.8187" gradientUnits="userSpaceOnUse">
<stop stop-color="#D47F0E"/>
<stop offset="1" stop-color="#BF6D00"/>
</linearGradient>
<linearGradient id="paint12_linear_390_8116" x1="213.923" y1="17.0936" x2="209.871" y2="46.8187" gradientUnits="userSpaceOnUse">
<stop stop-color="#D47F0E"/>
<stop offset="1" stop-color="#BF6D00"/>
</linearGradient>
<linearGradient id="paint13_linear_390_8116" x1="25.8058" y1="82.3838" x2="62.5706" y2="102.69" gradientUnits="userSpaceOnUse">
<stop stop-color="#F17259"/>
<stop offset="1" stop-color="#F1654A"/>
</linearGradient>
<linearGradient id="paint14_linear_390_8116" x1="233.09" y1="127.219" x2="207.521" y2="151.12" gradientUnits="userSpaceOnUse">
<stop stop-color="#F17259"/>
<stop offset="1" stop-color="#F1654A"/>
</linearGradient>
<linearGradient id="paint15_linear_390_8116" x1="22.9373" y1="107.399" x2="52.2787" y2="113.651" gradientUnits="userSpaceOnUse">
<stop stop-color="#F17259"/>
<stop offset="1" stop-color="#F1654A"/>
</linearGradient>
<linearGradient id="paint16_linear_390_8116" x1="230.979" y1="153.141" x2="208.544" y2="164.172" gradientUnits="userSpaceOnUse">
<stop stop-color="#F17259"/>
<stop offset="1" stop-color="#F1654A"/>
</linearGradient>
</defs>
</svg>
