<svg width="160" height="160" viewBox="0 0 160 160" fill="none" xmlns="http://www.w3.org/2000/svg">
<g filter="url(#filter0_ii_390_8156)">
<path d="M66.7552 59.1874C63.1519 56.7896 58.8297 55.1744 54.0756 54.6638C41.734 53.3382 30.4828 59.8856 26.5387 69.8848C13.9754 70.713 3.53526 79.41 2.15281 91.0443C0.639595 103.779 10.5307 115.385 24.4789 117.629C28.3889 124.481 35.9282 129.539 45.0613 130.52C49.815 131.03 54.407 130.373 58.4819 128.8C62.0852 131.198 66.4074 132.813 71.1615 133.324C80.2837 134.303 88.8102 130.982 94.2305 125.145C94.5675 125.192 94.9068 125.234 95.2483 125.271C110.025 126.858 123.277 117.434 124.847 104.221C126.329 91.7539 116.879 80.3682 103.393 77.7902C101.736 67.3662 92.3789 58.7784 80.1758 57.4677C75.4221 56.9571 70.8301 57.6146 66.7552 59.1874Z" fill="url(#paint0_linear_390_8156)"/>
</g>
<g filter="url(#filter1_ii_390_8156)">
<path fill-rule="evenodd" clip-rule="evenodd" d="M157.187 110.085C158.862 107.186 156.084 103.905 152.772 104.396C149.584 104.87 146.32 105.115 143 105.115C106.549 105.115 77 75.5656 77 39.1148C77 32.973 77.8389 27.0272 79.4084 21.3857C80.3057 18.1603 77.3943 14.9968 74.3108 16.301C50.6219 26.3201 34 49.7763 34 77.1148C34 113.566 63.5492 143.115 100 143.115C124.442 143.115 145.78 129.829 157.187 110.085Z" fill="url(#paint1_linear_390_8156)"/>
</g>
<g filter="url(#filter2_ii_390_8156)">
<path d="M69.8055 73.6594C73.3509 73.7409 76.5806 72.686 78.9404 70.9131C79.4591 70.5235 79.4758 69.7711 79.0236 69.3005C78.5842 68.8431 77.8652 68.8244 77.3517 69.1901C75.4195 70.5662 72.7635 71.3843 69.8452 71.3172C66.9526 71.2507 64.3468 70.327 62.4662 68.8852C61.9653 68.5012 61.2507 68.4898 60.7984 68.9245C60.3281 69.3764 60.322 70.1338 60.8325 70.5459C63.1258 72.3968 66.292 73.5787 69.8055 73.6594Z" fill="url(#paint2_linear_390_8156)"/>
</g>
<g filter="url(#filter3_ii_390_8156)">
<path d="M99.3965 32.4244C99.0311 32.4244 98.7156 32.358 98.4498 32.2252C98.2007 32.0923 97.9931 31.9262 97.8271 31.7269C97.6776 31.5276 97.5613 31.3034 97.4783 31.0543C97.4119 30.7886 97.3787 30.5312 97.3787 30.2821C97.3787 30.033 97.4119 29.7838 97.4783 29.5347C97.5613 29.2856 97.6776 29.0531 97.8271 28.8372C97.9931 28.6213 98.2007 28.4469 98.4498 28.3141C98.7156 28.1812 99.0311 28.1148 99.3965 28.1148H108.738C109.436 28.1148 110.034 28.2227 110.532 28.4386C111.047 28.6379 111.429 28.9535 111.678 29.3853C111.794 29.6012 111.885 29.842 111.952 30.1077C112.018 30.3734 112.035 30.6723 112.002 31.0045C111.968 31.32 111.869 31.6688 111.703 32.0508C111.553 32.4327 111.321 32.8479 111.005 33.2963L103.382 43.784H110.258C110.623 43.784 110.93 43.8505 111.18 43.9833C111.445 44.1162 111.661 44.2822 111.827 44.4815C111.993 44.6808 112.11 44.905 112.176 45.1541C112.259 45.4033 112.301 45.6524 112.301 45.9015C112.301 46.1506 112.259 46.408 112.176 46.6737C112.11 46.9229 111.993 47.1554 111.827 47.3713C111.661 47.5872 111.445 47.7615 111.18 47.8944C110.93 48.0273 110.623 48.0937 110.258 48.0937H100.293C99.5958 48.0937 98.9979 47.994 98.4997 47.7947C98.0014 47.5955 97.6195 47.2716 97.3537 46.8232C97.2541 46.6405 97.1628 46.4246 97.0797 46.1755C97.0133 45.9264 96.9884 45.6441 97.005 45.3285C97.0382 44.9964 97.1295 44.631 97.279 44.2324C97.4285 43.8338 97.6776 43.3937 98.0263 42.9121L105.674 32.4244H99.3965Z" fill="url(#paint3_linear_390_8156)"/>
<path d="M116.44 38.8538C116.141 38.8538 115.89 38.8063 115.686 38.7112C115.482 38.6025 115.312 38.4666 115.177 38.3035C115.054 38.1405 114.959 37.9638 114.891 37.7736C114.837 37.5698 114.81 37.3659 114.81 37.1621C114.81 36.9583 114.837 36.7545 114.891 36.5507C114.959 36.3468 115.054 36.1634 115.177 36.0004C115.312 35.8373 115.482 35.7014 115.686 35.5927C115.904 35.484 116.155 35.4297 116.44 35.4297H122.27C123.424 35.4297 124.199 35.7694 124.593 36.4488C124.688 36.6118 124.763 36.8088 124.817 37.0398C124.872 37.2572 124.885 37.5018 124.858 37.7736C124.831 38.0318 124.749 38.3171 124.613 38.6296C124.491 38.9286 124.287 39.2479 124.002 39.5876L119.742 44.6423H123.635C123.934 44.6423 124.185 44.6967 124.389 44.8054C124.593 44.9005 124.756 45.0296 124.878 45.1926C125.014 45.3557 125.109 45.5391 125.164 45.743C125.232 45.9332 125.266 46.1302 125.266 46.334C125.266 46.5379 125.232 46.7417 125.164 46.9455C125.109 47.1493 125.014 47.3328 124.878 47.4958C124.756 47.6589 124.586 47.7948 124.369 47.9035C124.165 48.0122 123.92 48.0665 123.635 48.0665H117.296C116.726 48.0665 116.243 47.9918 115.849 47.8423C115.469 47.6793 115.177 47.4143 114.973 47.0474C114.891 46.8979 114.816 46.7213 114.749 46.5175C114.681 46.3001 114.653 46.0623 114.667 45.8041C114.694 45.5323 114.769 45.2402 114.891 44.9277C115.027 44.6152 115.251 44.2755 115.564 43.9086L119.824 38.8538H116.44Z" fill="url(#paint4_linear_390_8156)"/>
<path d="M128.262 41.884C128.063 41.884 127.895 41.8523 127.76 41.7888C127.624 41.7164 127.51 41.6258 127.42 41.5171C127.338 41.4084 127.275 41.2906 127.23 41.1638C127.193 41.0279 127.175 40.892 127.175 40.7562C127.175 40.6203 127.193 40.4844 127.23 40.3485C127.275 40.2126 127.338 40.0903 127.42 39.9816C127.51 39.8729 127.624 39.7824 127.76 39.7099C127.905 39.6374 128.072 39.6012 128.262 39.6012H132.149C132.919 39.6012 133.435 39.8276 133.698 40.2806C133.761 40.3893 133.811 40.5206 133.847 40.6746C133.883 40.8196 133.892 40.9826 133.874 41.1638C133.856 41.3359 133.802 41.5261 133.711 41.7345C133.63 41.9338 133.494 42.1467 133.304 42.3731L130.464 45.743H133.059C133.258 45.743 133.426 45.7792 133.562 45.8517C133.698 45.9151 133.806 46.0011 133.888 46.1098C133.978 46.2185 134.042 46.3408 134.078 46.4767C134.123 46.6035 134.146 46.7349 134.146 46.8708C134.146 47.0066 134.123 47.1425 134.078 47.2784C134.042 47.4143 133.978 47.5366 133.888 47.6453C133.806 47.754 133.693 47.8446 133.548 47.917C133.412 47.9895 133.249 48.0257 133.059 48.0257H128.833C128.453 48.0257 128.131 47.9759 127.868 47.8763C127.615 47.7676 127.42 47.5909 127.284 47.3463C127.23 47.2467 127.18 47.1289 127.135 46.9931C127.089 46.8481 127.071 46.6896 127.08 46.5175C127.098 46.3363 127.148 46.1415 127.23 45.9332C127.32 45.7248 127.47 45.4984 127.678 45.2538L130.518 41.884H128.262Z" fill="url(#paint5_linear_390_8156)"/>
</g>
<defs>
<filter id="filter0_ii_390_8156" x="1.31975" y="53.1332" width="124.36" height="81.721" filterUnits="userSpaceOnUse" color-interpolation-filters="sRGB">
<feFlood flood-opacity="0" result="BackgroundImageFix"/>
<feBlend mode="normal" in="SourceGraphic" in2="BackgroundImageFix" result="shape"/>
<feColorMatrix in="SourceAlpha" type="matrix" values="0 0 0 0 0 0 0 0 0 0 0 0 0 0 0 0 0 0 127 0" result="hardAlpha"/>
<feOffset dx="0.680246" dy="1.36049"/>
<feGaussianBlur stdDeviation="1.36049"/>
<feComposite in2="hardAlpha" operator="arithmetic" k2="-1" k3="1"/>
<feColorMatrix type="matrix" values="0 0 0 0 1 0 0 0 0 1 0 0 0 0 1 0 0 0 0.25 0"/>
<feBlend mode="normal" in2="shape" result="effect1_innerShadow_390_8156"/>
<feColorMatrix in="SourceAlpha" type="matrix" values="0 0 0 0 0 0 0 0 0 0 0 0 0 0 0 0 0 0 127 0" result="hardAlpha"/>
<feOffset dx="-0.680246" dy="-1.36049"/>
<feGaussianBlur stdDeviation="1.36049"/>
<feComposite in2="hardAlpha" operator="arithmetic" k2="-1" k3="1"/>
<feColorMatrix type="matrix" values="0 0 0 0 0 0 0 0 0 0 0 0 0 0 0 0 0 0 0.25 0"/>
<feBlend mode="normal" in2="effect1_innerShadow_390_8156" result="effect2_innerShadow_390_8156"/>
</filter>
<filter id="filter1_ii_390_8156" x="30" y="11" width="129.69" height="135.115" filterUnits="userSpaceOnUse" color-interpolation-filters="sRGB">
<feFlood flood-opacity="0" result="BackgroundImageFix"/>
<feBlend mode="normal" in="SourceGraphic" in2="BackgroundImageFix" result="shape"/>
<feColorMatrix in="SourceAlpha" type="matrix" values="0 0 0 0 0 0 0 0 0 0 0 0 0 0 0 0 0 0 127 0" result="hardAlpha"/>
<feOffset dx="-4" dy="-5"/>
<feGaussianBlur stdDeviation="4"/>
<feComposite in2="hardAlpha" operator="arithmetic" k2="-1" k3="1"/>
<feColorMatrix type="matrix" values="0 0 0 0 0 0 0 0 0 0 0 0 0 0 0 0 0 0 0.25 0"/>
<feBlend mode="normal" in2="shape" result="effect1_innerShadow_390_8156"/>
<feColorMatrix in="SourceAlpha" type="matrix" values="0 0 0 0 0 0 0 0 0 0 0 0 0 0 0 0 0 0 127 0" result="hardAlpha"/>
<feOffset dx="2" dy="3"/>
<feGaussianBlur stdDeviation="2"/>
<feComposite in2="hardAlpha" operator="arithmetic" k2="-1" k3="1"/>
<feColorMatrix type="matrix" values="0 0 0 0 1 0 0 0 0 1 0 0 0 0 1 0 0 0 0.25 0"/>
<feBlend mode="normal" in2="effect1_innerShadow_390_8156" result="effect2_innerShadow_390_8156"/>
</filter>
<filter id="filter2_ii_390_8156" x="59.9475" y="67.5977" width="19.8997" height="7.0661" filterUnits="userSpaceOnUse" color-interpolation-filters="sRGB">
<feFlood flood-opacity="0" result="BackgroundImageFix"/>
<feBlend mode="normal" in="SourceGraphic" in2="BackgroundImageFix" result="shape"/>
<feColorMatrix in="SourceAlpha" type="matrix" values="0 0 0 0 0 0 0 0 0 0 0 0 0 0 0 0 0 0 127 0" result="hardAlpha"/>
<feOffset dx="-0.5" dy="-1"/>
<feGaussianBlur stdDeviation="0.5"/>
<feComposite in2="hardAlpha" operator="arithmetic" k2="-1" k3="1"/>
<feColorMatrix type="matrix" values="0 0 0 0 0 0 0 0 0 0 0 0 0 0 0 0 0 0 0.25 0"/>
<feBlend mode="normal" in2="shape" result="effect1_innerShadow_390_8156"/>
<feColorMatrix in="SourceAlpha" type="matrix" values="0 0 0 0 0 0 0 0 0 0 0 0 0 0 0 0 0 0 127 0" result="hardAlpha"/>
<feOffset dx="0.5" dy="1"/>
<feGaussianBlur stdDeviation="1"/>
<feComposite in2="hardAlpha" operator="arithmetic" k2="-1" k3="1"/>
<feColorMatrix type="matrix" values="0 0 0 0 1 0 0 0 0 1 0 0 0 0 1 0 0 0 0.25 0"/>
<feBlend mode="normal" in2="effect1_innerShadow_390_8156" result="effect2_innerShadow_390_8156"/>
</filter>
<filter id="filter3_ii_390_8156" x="97" y="26.9118" width="38.349" height="21.7834" filterUnits="userSpaceOnUse" color-interpolation-filters="sRGB">
<feFlood flood-opacity="0" result="BackgroundImageFix"/>
<feBlend mode="normal" in="SourceGraphic" in2="BackgroundImageFix" result="shape"/>
<feColorMatrix in="SourceAlpha" type="matrix" values="0 0 0 0 0 0 0 0 0 0 0 0 0 0 0 0 0 0 127 0" result="hardAlpha"/>
<feOffset dy="-1.20301"/>
<feGaussianBlur stdDeviation="0.902254"/>
<feComposite in2="hardAlpha" operator="arithmetic" k2="-1" k3="1"/>
<feColorMatrix type="matrix" values="0 0 0 0 0 0 0 0 0 0 0 0 0 0 0 0 0 0 0.25 0"/>
<feBlend mode="normal" in2="shape" result="effect1_innerShadow_390_8156"/>
<feColorMatrix in="SourceAlpha" type="matrix" values="0 0 0 0 0 0 0 0 0 0 0 0 0 0 0 0 0 0 127 0" result="hardAlpha"/>
<feOffset dx="1.20301" dy="0.601503"/>
<feGaussianBlur stdDeviation="0.902254"/>
<feComposite in2="hardAlpha" operator="arithmetic" k2="-1" k3="1"/>
<feColorMatrix type="matrix" values="0 0 0 0 1 0 0 0 0 1 0 0 0 0 1 0 0 0 0.25 0"/>
<feBlend mode="normal" in2="effect1_innerShadow_390_8156" result="effect2_innerShadow_390_8156"/>
</filter>
<linearGradient id="paint0_linear_390_8156" x1="17.9471" y1="99.4571" x2="117.443" y2="87.9992" gradientUnits="userSpaceOnUse">
<stop stop-color="#E1F0F4"/>
<stop offset="1" stop-color="#C8ECF7"/>
</linearGradient>
<linearGradient id="paint1_linear_390_8156" x1="52.0361" y1="29.2968" x2="130.152" y2="126.928" gradientUnits="userSpaceOnUse">
<stop stop-color="#FFF29F"/>
<stop offset="1" stop-color="#FFC64C"/>
</linearGradient>
<linearGradient id="paint2_linear_390_8156" x1="74.7424" y1="74.9495" x2="65.0522" y2="64.8451" gradientUnits="userSpaceOnUse">
<stop stop-color="#D47F0E"/>
<stop offset="1" stop-color="#BF6D00"/>
</linearGradient>
<linearGradient id="paint3_linear_390_8156" x1="105.108" y1="28.1286" x2="120.111" y2="47.9445" gradientUnits="userSpaceOnUse">
<stop stop-color="#7D8ADF"/>
<stop offset="1" stop-color="#6A79DC"/>
</linearGradient>
<linearGradient id="paint4_linear_390_8156" x1="105.108" y1="28.1286" x2="120.111" y2="47.9445" gradientUnits="userSpaceOnUse">
<stop stop-color="#7D8ADF"/>
<stop offset="1" stop-color="#6A79DC"/>
</linearGradient>
<linearGradient id="paint5_linear_390_8156" x1="105.108" y1="28.1286" x2="120.111" y2="47.9445" gradientUnits="userSpaceOnUse">
<stop stop-color="#7D8ADF"/>
<stop offset="1" stop-color="#6A79DC"/>
</linearGradient>
</defs>
</svg>
