<svg width="240" height="162" viewBox="0 0 240 162" fill="none" xmlns="http://www.w3.org/2000/svg">
<path d="M186.727 131.662C187.887 131.662 188.711 131.433 189.196 130.976C189.68 130.517 189.924 130.005 189.924 129.435C189.924 128.866 189.68 128.388 189.196 127.931C188.708 127.472 187.884 127.245 186.727 127.245H167.751C166.591 127.245 165.767 127.475 165.282 127.931C164.795 128.391 164.554 128.89 164.554 129.435C164.554 129.981 164.798 130.52 165.282 130.976C165.767 131.436 166.591 131.662 167.751 131.662H186.727Z" fill="#FFD562"/>
<path d="M198.487 134.659H198.626C198.635 134.619 198.641 134.579 198.651 134.539C198.598 134.579 198.543 134.619 198.487 134.659Z" fill="#FFD562"/>
<path d="M132.042 110.035C132.042 109.689 131.949 109.416 131.761 109.217C131.573 109.018 131.199 108.92 130.638 108.92H109.023C108.462 108.92 108.098 109.018 107.928 109.217C107.758 109.416 107.675 109.689 107.675 110.035V116.091C107.675 116.462 107.795 116.747 108.039 116.946C108.283 117.145 108.739 117.243 109.415 117.243H132.039V110.035H132.042Z" fill="#FFD562"/>
<path d="M44.4093 102.456H80.0591C82.5279 102.456 84.3054 102.705 85.3917 103.201C86.478 103.697 87.0211 104.65 87.0211 106.062V110.482C87.0211 111.87 86.8514 113.083 86.515 114.125C86.1786 115.166 85.7466 116.009 85.2251 116.652H85.617C87.2248 116.652 88.3574 116.925 89.0147 117.47C89.6689 118.015 89.996 118.634 89.996 119.326C89.996 120.019 89.6597 120.665 88.9869 121.183C88.3142 121.703 87.1909 121.964 85.6201 121.964H69.3968V122.846C69.3968 124.368 68.184 125.603 66.6873 125.603H60.7652C59.2685 125.603 58.0557 124.368 58.0557 122.846V121.964H41.8325C41.1381 121.964 40.5394 121.909 40.021 121.808C40.1753 125.03 40.524 128.201 41.0548 131.313C41.8232 131.111 42.6997 131.053 43.6872 131.141C45.3722 131.292 46.9985 131.347 48.5724 131.31C50.1462 131.273 51.5473 131.157 52.7817 130.958C54.0161 130.759 55.0561 130.48 55.8986 130.121C56.7411 129.763 57.312 129.334 57.6113 128.841C58.247 127.726 59.0895 126.985 60.1388 126.611C61.1849 126.24 62.515 126.053 64.1259 126.053C65.4745 126.053 66.6133 126.252 67.5514 126.648C68.4865 127.043 69.0296 127.64 69.1808 128.43C71.4275 128.332 73.6247 128.388 75.7757 128.599C77.9266 128.81 79.9017 129.23 81.6977 129.861C83.4938 130.492 85.0368 131.377 86.3299 132.517C86.3422 132.529 86.3545 132.538 86.37 132.551C87.0242 133.133 87.2464 133.92 87.1507 134.658H94.2054C93.8042 134.171 93.6036 133.641 93.6036 133.071C93.6036 132.701 93.6869 132.336 93.8567 131.975C94.0264 131.616 94.2949 131.295 94.6714 131.01C95.0448 130.725 95.5324 130.495 96.1311 130.324C96.7298 130.149 97.4581 130.063 98.3191 130.063H114.15V123.079H104.494C102.809 123.079 101.442 122.987 100.396 122.8C99.3467 122.613 98.5351 122.31 97.9549 121.89C97.3747 121.471 96.9797 120.901 96.776 120.181C96.5693 119.464 96.4674 118.557 96.4674 117.47V108.7C96.4674 107.633 96.5693 106.736 96.776 106.007C96.9828 105.278 97.3747 104.693 97.9549 104.261C98.5351 103.829 99.3498 103.516 100.396 103.333C101.442 103.146 102.809 103.054 104.494 103.054H135.259C136.944 103.054 138.308 103.146 139.357 103.333C140.403 103.519 141.218 103.829 141.798 104.261C142.378 104.696 142.77 105.278 142.977 106.007C143.184 106.739 143.285 107.637 143.285 108.7V119.519C143.285 121.486 141.721 123.079 139.792 123.079H125.603V130.063H141.434C142.295 130.063 143.023 130.149 143.622 130.324C144.221 130.498 144.708 130.728 145.082 131.01C145.455 131.295 145.727 131.616 145.896 131.975C146.066 132.333 146.149 132.698 146.149 133.071C146.149 133.641 145.949 134.168 145.548 134.658H155.997C155.071 133.99 154.37 133.225 153.898 132.348C153.411 131.445 153.17 130.471 153.17 129.432C153.17 128.394 153.414 127.456 153.898 126.553C154.386 125.649 155.114 124.856 156.086 124.175C157.058 123.495 158.284 122.956 159.765 122.558C161.243 122.163 162.974 121.964 164.959 121.964H189.548C191.492 121.964 193.205 122.157 194.686 122.54C196.165 122.923 197.39 123.456 198.365 124.139C199.031 124.604 199.587 125.125 200.034 125.698C200.26 123.37 200.386 121.014 200.405 118.634C199.803 119.902 198.531 120.778 197.056 120.778H193.165C191.11 120.778 189.44 119.081 189.44 116.986V105.618C189.44 104.405 190.011 103.489 191.153 102.867C192.295 102.248 193.612 101.939 195.109 101.939C195.819 101.939 196.522 102.018 197.214 102.181C197.871 102.334 198.451 102.558 198.957 102.842C191.832 66.0978 159.271 38.3379 120.174 38.3379C81.0774 38.3379 48.4829 66.1284 41.3819 102.904C42.1133 102.607 43.1286 102.456 44.4309 102.456H44.4093ZM151.411 106.469C151.411 105.207 151.954 104.291 153.04 103.719C154.127 103.149 155.454 102.864 157.028 102.864C158.601 102.864 159.91 103.149 160.956 103.719C162.002 104.288 162.527 105.204 162.527 106.469V112.936C162.527 113.359 162.619 113.622 162.808 113.736C162.996 113.846 163.406 113.904 164.042 113.904H181.222C182.944 113.904 184.151 114.195 184.842 114.777C185.533 115.359 185.882 116.048 185.882 116.839C185.882 117.629 185.527 118.312 184.814 118.882C184.101 119.452 182.904 119.737 181.222 119.737H159.385C156.691 119.737 154.688 119.372 153.377 118.64C152.065 117.911 151.411 116.64 151.411 114.832V106.472V106.469Z" fill="#FFD562"/>
<path d="M65.7972 133.595C65.1553 133.984 64.4517 134.337 63.6833 134.661H75.0738C74.472 134.367 73.7931 134.128 73.037 133.948C70.9046 133.439 68.4882 133.323 65.7941 133.595H65.7972Z" fill="#FFD562"/>
<path d="M43.8468 109.664H75.9599V108.476C75.9599 107.955 75.5094 107.695 74.6113 107.695H44.4084C42.7234 107.695 41.5168 107.453 40.7885 106.969C40.7546 106.947 40.7268 106.923 40.6959 106.901C40.5355 108.044 40.3997 109.196 40.2886 110.354C41.023 109.894 42.2081 109.664 43.8498 109.664H43.8468Z" fill="#FFD562"/>
<path d="M74.221 116.652C74.4463 116.379 74.6407 116.082 74.8104 115.76C74.9801 115.439 75.1375 115.093 75.2887 114.719H43.8514C42.1665 114.719 40.9598 114.489 40.2315 114.033C40.1575 113.987 40.0927 113.938 40.0279 113.889C39.9785 114.863 39.9538 115.84 39.9384 116.823C40.4722 116.71 41.1018 116.652 41.8332 116.652H74.2241H74.221Z" fill="#FFD562"/>
<path d="M126.789 6.73933C126.789 3.0173 123.75 0 120 0C116.25 0 113.211 3.0173 113.211 6.73933V26.3446C113.211 30.0667 116.25 33.084 120 33.084C123.75 33.084 126.789 30.0667 126.789 26.3446V6.73933Z" fill="#FFD562"/>
<path d="M26.5392 121.18H6.78867C3.03907 121.18 -0.000579834 124.197 -0.000579834 127.919C-0.000579834 131.641 3.03907 134.658 6.78867 134.658H26.5392C30.2888 134.658 33.3285 131.641 33.3285 127.919C33.3285 124.197 30.2888 121.18 26.5392 121.18Z" fill="#FFD562"/>
<path d="M233.211 121.18H213.461C209.711 121.18 206.672 124.197 206.672 127.919C206.672 131.641 209.711 134.658 213.461 134.658H233.211C236.961 134.658 240.001 131.641 240.001 127.919C240.001 124.197 236.961 121.18 233.211 121.18Z" fill="#FFD562"/>
<path d="M58.4773 23.0632C56.0671 20.2119 51.7847 19.84 48.9124 22.2325C46.04 24.625 45.6653 28.8758 48.0755 31.7271L60.7709 46.7456C63.1811 49.5969 67.4635 49.9688 70.3359 47.5763C73.2082 45.1838 73.5829 40.9329 71.1727 38.0817L58.4773 23.0632Z" fill="#FFD562"/>
<path d="M180.983 23.062L168.288 38.0805C165.877 40.9318 166.252 45.1826 169.124 47.5751C171.997 49.9676 176.279 49.5957 178.689 46.7445L191.385 31.7259C193.795 28.8747 193.42 24.6238 190.548 22.2313C187.676 19.8389 183.393 20.2108 180.983 23.062Z" fill="#FFD562"/>
<path d="M18.0969 66.8384C14.6986 65.2654 10.6591 66.7248 9.07446 70.0982C7.48981 73.4715 8.96006 77.4812 12.3584 79.0542L30.2584 87.3398C33.6567 88.9128 37.6962 87.4533 39.2808 84.08C40.8655 80.7067 39.3952 76.697 35.9969 75.124L18.0969 66.8384Z" fill="#FFD562"/>
<path d="M222.213 66.8389L204.313 75.1245C200.915 76.6975 199.444 80.7073 201.029 84.0806C202.614 87.4539 206.653 88.9133 210.051 87.3403L227.951 79.0547C231.35 77.4817 232.82 73.472 231.235 70.0987C229.651 66.7254 225.611 65.2659 222.213 66.8389Z" fill="#FFD562"/>
<path d="M186.722 127.238H167.746C166.585 127.238 165.761 127.468 165.277 127.924C164.789 128.384 164.549 128.883 164.549 129.429C164.549 129.974 164.792 130.513 165.277 130.969C165.761 131.429 166.585 131.656 167.746 131.656H186.722C187.882 131.656 188.706 131.426 189.19 130.969C189.456 130.718 189.647 130.452 189.768 130.17C189.814 129.851 189.863 129.53 189.906 129.211C189.851 128.752 189.61 128.32 189.19 127.924C188.703 127.465 187.879 127.238 186.722 127.238Z" fill="#FFB026"/>
<path d="M132.04 110.035C132.04 109.689 131.948 109.416 131.76 109.217C131.571 109.018 131.198 108.92 130.636 108.92H109.022C108.46 108.92 108.096 109.018 107.926 109.217C107.757 109.416 107.673 109.689 107.673 110.035V116.091C107.673 116.462 107.794 116.747 108.037 116.946C108.281 117.145 108.738 117.243 109.414 117.243H132.037V110.035H132.04Z" fill="#FFB026"/>
<path d="M80.0567 102.456C82.5255 102.456 84.303 102.704 85.3893 103.2C86.4756 103.696 87.0187 104.649 87.0187 106.061V110.482C87.0187 111.869 86.849 113.083 86.5126 114.124C86.1763 115.166 85.7442 116.008 85.2227 116.651H85.6146C87.2224 116.651 88.355 116.924 89.0123 117.469C89.6665 118.015 89.9937 118.633 89.9937 119.326C89.9937 120.018 89.6573 120.664 88.9845 121.182C88.3118 121.703 87.1885 121.963 85.6177 121.963H69.3945V122.845C69.3945 124.368 68.1817 125.602 66.6849 125.602H60.7629C59.2661 125.602 58.0533 124.368 58.0533 122.845V121.963H49.826C49.9124 125.097 50.2087 128.182 50.6993 131.199C51.4369 131.141 52.1313 131.058 52.7793 130.954C54.0137 130.755 55.0537 130.476 55.8962 130.118C56.7387 129.759 57.3096 129.33 57.6089 128.837C58.2447 127.722 59.0871 126.981 60.1364 126.607C61.1826 126.236 62.5126 126.05 64.1235 126.05C65.4721 126.05 66.6109 126.249 67.549 126.644C68.4841 127.039 69.0272 127.636 69.1784 128.427C71.4251 128.329 73.6223 128.384 75.7733 128.595C77.9242 128.807 79.8993 129.226 81.6954 129.857C83.4914 130.488 85.0344 131.374 86.3275 132.513C86.3398 132.525 86.3522 132.535 86.3676 132.547C87.0218 133.129 87.244 133.916 87.1484 134.655H94.203C93.8018 134.167 93.6012 133.637 93.6012 133.068C93.6012 132.697 93.6846 132.333 93.8543 131.971C94.024 131.613 94.2925 131.291 94.669 131.006C95.0424 130.721 95.53 130.491 96.1287 130.32C96.7274 130.145 97.4557 130.06 98.3167 130.06H114.148V123.075H104.492C102.807 123.075 101.44 122.983 100.394 122.796C99.3443 122.61 98.5327 122.306 97.9525 121.887C97.3723 121.467 96.9773 120.897 96.7737 120.177C96.5669 119.46 96.4651 118.554 96.4651 117.466V108.696C96.4651 107.63 96.5669 106.732 96.7737 106.003C96.9804 105.274 97.3723 104.689 97.9525 104.257C98.5327 103.825 99.3474 103.513 100.394 103.329C101.44 103.142 102.807 103.05 104.492 103.05H135.256C136.941 103.05 138.305 103.142 139.355 103.329C140.401 103.516 141.215 103.825 141.796 104.257C142.376 104.692 142.768 105.274 142.975 106.003C143.181 106.735 143.283 107.633 143.283 108.696V119.516C143.283 121.482 141.719 123.075 139.79 123.075H125.6V130.06H141.432C142.293 130.06 143.021 130.145 143.619 130.32C144.218 130.495 144.706 130.724 145.079 131.006C145.453 131.291 145.724 131.613 145.894 131.971C146.064 132.329 146.147 132.694 146.147 133.068C146.147 133.637 145.946 134.164 145.545 134.655H155.994C155.069 133.987 154.368 133.221 153.896 132.345C153.408 131.441 153.168 130.467 153.168 129.428C153.168 128.39 153.411 127.453 153.896 126.549C154.384 125.645 155.112 124.852 156.084 124.172C157.056 123.492 158.281 122.953 159.762 122.554C161.241 122.159 162.972 121.96 164.956 121.96H189.546C189.873 121.96 190.191 121.966 190.502 121.978C190.521 121.332 190.53 120.683 190.53 120.033C190.53 119.908 190.527 119.785 190.524 119.663C189.848 118.976 189.432 118.027 189.432 116.979V107.682C183.556 75.0023 154.782 50.1924 120.169 50.1924C87.4292 50.1924 59.9111 72.3923 52.0603 102.453H80.0721L80.0567 102.456ZM151.409 106.469C151.409 105.207 151.952 104.291 153.038 103.718C154.124 103.148 155.451 102.863 157.025 102.863C158.599 102.863 159.908 103.148 160.954 103.718C162 104.288 162.524 105.204 162.524 106.469V112.936C162.524 113.358 162.617 113.622 162.805 113.735C162.994 113.845 163.404 113.904 164.04 113.904H181.22C182.942 113.904 184.148 114.195 184.839 114.777C185.531 115.359 185.879 116.048 185.879 116.838C185.879 117.629 185.525 118.312 184.812 118.881C184.099 119.451 182.901 119.736 181.22 119.736H159.383C156.689 119.736 154.686 119.372 153.374 118.639C152.063 117.91 151.409 116.639 151.409 114.832V106.472V106.469Z" fill="#FFB026"/>
<path d="M74.806 115.756C74.9758 115.435 75.1331 115.089 75.2844 114.715H49.9944C49.945 115.355 49.908 116.001 49.8771 116.648H74.2166C74.4419 116.375 74.6363 116.078 74.806 115.756Z" fill="#FFB026"/>
<path d="M75.9576 108.476C75.9576 107.955 75.507 107.694 74.609 107.694H50.8867C50.7695 108.347 50.6645 109.005 50.5658 109.664H75.9576V108.476Z" fill="#FFB026"/>
<path d="M65.7957 133.594C65.1538 133.983 64.4502 134.336 63.6818 134.66H75.0723C74.4705 134.366 73.7916 134.127 73.0355 133.947C70.9031 133.438 68.4867 133.322 65.7926 133.594H65.7957Z" fill="#FFB026"/>
<path d="M40.0029 149.682C40.0029 149.444 40.0425 149.235 40.125 149.059C40.2075 148.882 40.3165 148.732 40.4518 148.605C40.5872 148.481 40.7423 148.386 40.9173 148.324C41.0922 148.262 41.2738 148.23 41.4686 148.23C41.6633 148.23 41.8449 148.262 42.0198 148.324C42.1948 148.386 42.35 148.481 42.4853 148.605C42.6206 148.729 42.7296 148.879 42.8121 149.059C42.8946 149.235 42.9343 149.444 42.9343 149.682V152.984L46.3476 148.85C46.4928 148.677 46.6546 148.543 46.8328 148.448C47.0111 148.354 47.196 148.292 47.3841 148.262C47.5723 148.233 47.7604 148.24 47.9519 148.276C48.1401 148.315 48.3084 148.38 48.4537 148.478C48.6187 148.582 48.7541 148.716 48.8597 148.879C48.9653 149.042 49.0347 149.215 49.0644 149.405C49.0941 149.591 49.0842 149.78 49.0347 149.972C48.9851 150.165 48.8894 150.335 48.7442 150.488L45.9977 153.516L50.0514 159.847H46.681L44.0962 155.611L42.9343 156.89V159.847H39.9996V149.682H40.0029Z" fill="#FFB026"/>
<path d="M57.2909 155.21H53.6168V159.847H50.626V149.695C50.626 149.457 50.6657 149.245 50.7482 149.062C50.8307 148.88 50.9396 148.726 51.075 148.602C51.2103 148.478 51.3688 148.384 51.5537 148.322C51.7385 148.26 51.9267 148.227 52.1214 148.227C52.3162 148.227 52.5011 148.26 52.6793 148.322C52.8576 148.384 53.0193 148.478 53.158 148.602C53.2966 148.726 53.4089 148.88 53.4914 149.062C53.5739 149.245 53.6135 149.454 53.6135 149.695V152.71H57.2877V149.695C57.2877 149.457 57.3273 149.245 57.4098 149.062C57.4923 148.88 57.6013 148.726 57.7366 148.602C57.8719 148.478 58.0304 148.384 58.2153 148.322C58.4001 148.26 58.5883 148.227 58.783 148.227C58.9778 148.227 59.1627 148.26 59.3409 148.322C59.5192 148.384 59.6809 148.478 59.8196 148.602C59.9582 148.726 60.0705 148.88 60.153 149.062C60.2355 149.245 60.2751 149.454 60.2751 149.695V159.847H57.2843V155.21H57.2909Z" fill="#FFB026"/>
<path d="M68.1505 149.653C68.1505 149.415 68.1901 149.203 68.2726 149.02C68.3552 148.837 68.4641 148.691 68.5994 148.576C68.7348 148.462 68.8932 148.374 69.0715 148.319C69.2498 148.26 69.4412 148.234 69.6459 148.234C70.0519 148.234 70.4018 148.348 70.6989 148.58C70.996 148.811 71.1413 149.167 71.1413 149.656V155.873C71.1413 156.675 70.996 157.348 70.7055 157.883C70.415 158.418 70.042 158.852 69.5865 159.182C69.1309 159.511 68.6292 159.746 68.0746 159.886C67.52 160.027 66.9852 160.095 66.4636 160.095C65.9421 160.095 65.404 160.027 64.8527 159.886C64.3014 159.746 63.7963 159.514 63.3408 159.182C62.8852 158.852 62.5122 158.418 62.2217 157.883C61.9312 157.348 61.786 156.675 61.786 155.873V149.656C61.786 149.418 61.8256 149.206 61.9081 149.023C61.9906 148.841 62.0996 148.694 62.2349 148.58C62.3703 148.465 62.5287 148.377 62.707 148.322C62.8852 148.263 63.0767 148.237 63.2814 148.237C63.6874 148.237 64.0373 148.351 64.3344 148.583C64.6282 148.811 64.7768 149.17 64.7768 149.66V155.99C64.7768 156.258 64.8263 156.493 64.9286 156.695C65.031 156.897 65.163 157.064 65.3281 157.198C65.4931 157.331 65.6747 157.432 65.8727 157.498C66.0708 157.566 66.2656 157.599 66.4603 157.599C66.6551 157.599 66.8499 157.566 67.0479 157.498C67.246 157.432 67.4275 157.331 67.5926 157.198C67.7577 157.064 67.8897 156.897 67.992 156.695C68.0944 156.493 68.1439 156.261 68.1439 155.99V149.66L68.1505 149.653Z" fill="#FFB026"/>
<path d="M98.3748 155.208C98.3748 155.936 98.2527 156.559 98.0117 157.074C97.7707 157.59 97.4406 158.014 97.0247 158.337C96.6088 158.664 96.1235 158.902 95.5722 159.055C95.0209 159.208 94.4333 159.284 93.816 159.284C93.1987 159.284 92.5682 159.205 91.9641 159.045C91.36 158.889 90.8219 158.634 90.3532 158.285C89.8844 157.936 89.5048 157.482 89.2143 156.928C88.9238 156.373 88.7786 155.704 88.7786 154.917V151.788C88.7786 150.995 88.9238 150.32 89.2143 149.765C89.5048 149.21 89.8877 148.76 90.3631 148.414C90.8384 148.068 91.3798 147.817 91.9905 147.66C92.6012 147.504 93.2251 147.422 93.8656 147.422C94.506 147.422 95.1431 147.491 95.6944 147.624C96.2456 147.758 96.6616 147.925 96.9422 148.127C97.2426 148.339 97.4505 148.597 97.5661 148.91C97.6816 149.22 97.6519 149.53 97.4802 149.837C97.335 150.085 97.1402 150.264 96.8993 150.369C96.6583 150.473 96.4107 150.502 96.1598 150.454C95.9948 150.424 95.8462 150.379 95.7175 150.317C95.5854 150.255 95.4666 150.199 95.3609 150.15C95.0209 150.026 94.5225 149.964 93.8656 149.964C93.6147 149.964 93.3605 150.003 93.1096 150.085C92.8587 150.166 92.6309 150.287 92.4263 150.444C92.2216 150.6 92.0565 150.806 91.9311 151.054C91.8057 151.302 91.743 151.589 91.743 151.915V154.787C91.743 155.123 91.8024 155.41 91.9179 155.655C92.0334 155.9 92.1919 156.099 92.39 156.259C92.588 156.415 92.8125 156.536 93.0568 156.618C93.3044 156.699 93.5585 156.738 93.8193 156.738C94.0603 156.738 94.298 156.706 94.5324 156.644C94.7634 156.582 94.9681 156.49 95.1431 156.37C95.318 156.249 95.4567 156.095 95.5656 155.909C95.6712 155.723 95.7241 155.502 95.7241 155.241V155.068C95.7241 154.924 95.701 154.833 95.658 154.793C95.6151 154.754 95.526 154.735 95.3907 154.735H94.912C94.6974 154.735 94.5192 154.699 94.3739 154.627C94.2287 154.555 94.1098 154.461 94.0174 154.346C93.925 154.232 93.8589 154.102 93.8127 153.958C93.7698 153.815 93.7467 153.671 93.7467 153.527C93.7467 153.384 93.7698 153.237 93.8127 153.09C93.8556 152.943 93.925 152.81 94.0174 152.689C94.1098 152.568 94.232 152.47 94.3805 152.395C94.5291 152.32 94.7073 152.281 94.912 152.281H96.2324C96.6583 152.281 97.0115 152.317 97.2921 152.389C97.5727 152.46 97.7939 152.581 97.9523 152.748C98.1108 152.914 98.223 153.136 98.2857 153.407C98.3484 153.681 98.3814 154.017 98.3814 154.418V155.195L98.3748 155.208Z" fill="#FFB026"/>
<path d="M99.3613 154.017C99.3613 153.24 99.4867 152.601 99.7376 152.092C99.9885 151.586 100.319 151.178 100.725 150.871C101.131 150.565 101.583 150.349 102.081 150.225C102.58 150.101 103.075 150.039 103.57 150.039C104.065 150.039 104.547 150.101 105.046 150.225C105.544 150.349 105.996 150.565 106.403 150.871C106.809 151.178 107.142 151.586 107.396 152.092C107.654 152.601 107.782 153.24 107.782 154.017V155.339C107.782 156.115 107.654 156.755 107.396 157.264C107.139 157.773 106.809 158.178 106.403 158.484C105.996 158.791 105.544 159.006 105.046 159.13C104.547 159.254 104.055 159.316 103.57 159.316C103.085 159.316 102.593 159.254 102.095 159.13C101.596 159.006 101.144 158.791 100.738 158.484C100.332 158.178 99.9984 157.773 99.7442 157.264C99.4867 156.758 99.358 156.115 99.358 155.339V154.017H99.3613ZM104.867 153.887C104.867 153.629 104.828 153.41 104.752 153.234C104.676 153.058 104.574 152.911 104.455 152.797C104.333 152.682 104.194 152.598 104.042 152.545C103.887 152.493 103.732 152.467 103.577 152.467C103.422 152.467 103.266 152.493 103.111 152.545C102.956 152.598 102.818 152.682 102.699 152.797C102.58 152.911 102.478 153.058 102.402 153.234C102.326 153.41 102.286 153.629 102.286 153.887V155.466C102.286 155.724 102.326 155.942 102.402 156.118C102.478 156.295 102.58 156.442 102.699 156.556C102.818 156.67 102.956 156.755 103.111 156.807C103.266 156.859 103.422 156.885 103.577 156.885C103.732 156.885 103.887 156.859 104.042 156.807C104.197 156.755 104.336 156.67 104.455 156.556C104.577 156.442 104.676 156.295 104.752 156.118C104.828 155.942 104.867 155.724 104.867 155.466V153.887Z" fill="#FFB026"/>
<path d="M109.011 154.017C109.011 153.24 109.136 152.601 109.387 152.092C109.638 151.586 109.968 151.178 110.374 150.871C110.78 150.565 111.233 150.349 111.731 150.225C112.23 150.101 112.725 150.039 113.22 150.039C113.715 150.039 114.197 150.101 114.695 150.225C115.194 150.349 115.646 150.565 116.052 150.871C116.458 151.178 116.792 151.586 117.046 152.092C117.303 152.601 117.432 153.24 117.432 154.017V155.339C117.432 156.115 117.303 156.755 117.046 157.264C116.788 157.773 116.458 158.178 116.052 158.484C115.646 158.791 115.194 159.006 114.695 159.13C114.197 159.254 113.705 159.316 113.22 159.316C112.735 159.316 112.243 159.254 111.744 159.13C111.246 159.006 110.794 158.791 110.388 158.484C109.982 158.178 109.648 157.773 109.394 157.264C109.136 156.758 109.008 156.115 109.008 155.339V154.017H109.011ZM114.514 153.887C114.514 153.629 114.474 153.41 114.398 153.234C114.322 153.058 114.22 152.911 114.101 152.797C113.979 152.682 113.84 152.598 113.689 152.545C113.533 152.493 113.378 152.467 113.223 152.467C113.068 152.467 112.913 152.493 112.758 152.545C112.603 152.598 112.464 152.682 112.345 152.797C112.226 152.911 112.124 153.058 112.048 153.234C111.972 153.41 111.932 153.629 111.932 153.887V155.466C111.932 155.724 111.972 155.942 112.048 156.118C112.124 156.295 112.226 156.442 112.345 156.556C112.464 156.67 112.603 156.755 112.758 156.807C112.913 156.859 113.068 156.885 113.223 156.885C113.378 156.885 113.533 156.859 113.689 156.807C113.844 156.755 113.982 156.67 114.101 156.556C114.223 156.442 114.322 156.295 114.398 156.118C114.474 155.942 114.514 155.724 114.514 155.466V153.887Z" fill="#FFB026"/>
<path d="M124.765 159.041L124.606 158.108C124.326 158.474 123.979 158.761 123.567 158.97C123.154 159.182 122.688 159.286 122.164 159.286C121.678 159.286 121.223 159.221 120.797 159.094C120.371 158.963 119.995 158.748 119.671 158.441C119.348 158.134 119.09 157.726 118.902 157.221C118.714 156.715 118.618 156.082 118.618 155.325V154.032C118.618 153.275 118.714 152.646 118.902 152.137C119.09 151.631 119.348 151.223 119.671 150.916C119.995 150.609 120.371 150.391 120.797 150.264C121.223 150.133 121.678 150.071 122.164 150.071C122.57 150.071 122.936 150.13 123.26 150.251C123.583 150.371 123.87 150.534 124.124 150.747V148.348C124.124 148.11 124.164 147.901 124.247 147.725C124.329 147.549 124.438 147.399 124.573 147.281C124.709 147.16 124.867 147.069 125.045 147.007C125.224 146.945 125.412 146.912 125.603 146.912C125.795 146.912 125.98 146.945 126.155 147.007C126.33 147.069 126.485 147.16 126.62 147.281C126.755 147.402 126.864 147.549 126.947 147.725C127.029 147.901 127.069 148.11 127.069 148.348V159.045H124.758L124.765 159.041ZM121.616 155.524C121.616 155.772 121.655 155.977 121.738 156.14C121.82 156.304 121.923 156.437 122.051 156.542C122.177 156.646 122.312 156.721 122.457 156.764C122.603 156.806 122.738 156.829 122.863 156.829C122.989 156.829 123.121 156.806 123.263 156.764C123.401 156.721 123.537 156.653 123.662 156.555C123.788 156.46 123.893 156.333 123.982 156.173C124.068 156.016 124.118 155.821 124.128 155.592V153.755C124.118 153.527 124.068 153.331 123.982 153.174C123.897 153.018 123.788 152.89 123.662 152.792C123.537 152.698 123.401 152.626 123.263 152.584C123.121 152.541 122.989 152.518 122.863 152.518C122.738 152.518 122.603 152.541 122.457 152.584C122.312 152.626 122.177 152.701 122.051 152.806C121.926 152.91 121.82 153.047 121.738 153.213C121.655 153.38 121.616 153.585 121.616 153.824V155.517V155.524Z" fill="#FFB026"/>
<path d="M138.868 158.523C138.733 158.523 138.581 158.51 138.419 158.481C138.254 158.451 138.096 158.409 137.941 158.35C137.785 158.291 137.653 158.219 137.541 158.135C137.429 158.05 137.356 157.942 137.317 157.818L135.851 152.578L135.184 159.039H132.438L133.659 148.887C133.679 148.668 133.738 148.469 133.841 148.3C133.943 148.13 134.065 147.98 134.21 147.862C134.356 147.742 134.514 147.65 134.682 147.582C134.851 147.516 135.019 147.471 135.184 147.451C135.359 147.441 135.544 147.451 135.742 147.481C135.94 147.51 136.128 147.569 136.31 147.66C136.488 147.751 136.65 147.875 136.795 148.032C136.94 148.189 137.046 148.388 137.115 148.629L138.872 155.204L140.628 148.629C140.697 148.391 140.799 148.192 140.941 148.032C141.083 147.872 141.245 147.751 141.427 147.66C141.611 147.569 141.803 147.51 142.001 147.481C142.199 147.451 142.387 147.441 142.559 147.451C142.724 147.471 142.889 147.513 143.061 147.582C143.229 147.65 143.387 147.742 143.533 147.862C143.678 147.983 143.8 148.127 143.902 148.3C144.005 148.473 144.064 148.668 144.084 148.887L145.305 159.039H142.559L141.905 152.535L140.423 157.818C140.383 157.942 140.307 158.047 140.199 158.135C140.086 158.219 139.954 158.291 139.799 158.35C139.644 158.409 139.486 158.451 139.32 158.481C139.155 158.51 139.007 158.523 138.872 158.523H138.868Z" fill="#FFB026"/>
<path d="M146.421 154.017C146.421 153.24 146.547 152.601 146.798 152.092C147.049 151.586 147.379 151.178 147.785 150.871C148.191 150.565 148.643 150.349 149.141 150.225C149.64 150.101 150.135 150.039 150.63 150.039C151.125 150.039 151.607 150.101 152.106 150.225C152.604 150.349 153.057 150.565 153.463 150.871C153.869 151.178 154.202 151.586 154.456 152.092C154.714 152.601 154.842 153.24 154.842 154.017V155.339C154.842 156.115 154.714 156.755 154.456 157.264C154.199 157.773 153.869 158.178 153.463 158.484C153.057 158.791 152.604 159.006 152.106 159.13C151.607 159.254 151.115 159.316 150.63 159.316C150.145 159.316 149.653 159.254 149.155 159.13C148.656 159.006 148.204 158.791 147.798 158.484C147.392 158.178 147.058 157.773 146.804 157.264C146.547 156.758 146.418 156.115 146.418 155.339V154.017H146.421ZM151.924 153.887C151.924 153.629 151.885 153.41 151.809 153.234C151.733 153.058 151.63 152.911 151.512 152.797C151.389 152.682 151.251 152.598 151.099 152.545C150.944 152.493 150.789 152.467 150.634 152.467C150.478 152.467 150.323 152.493 150.168 152.545C150.013 152.598 149.874 152.682 149.755 152.797C149.637 152.911 149.534 153.058 149.458 153.234C149.382 153.41 149.343 153.629 149.343 153.887V155.466C149.343 155.724 149.382 155.942 149.458 156.118C149.534 156.295 149.637 156.442 149.755 156.556C149.874 156.67 150.013 156.755 150.168 156.807C150.323 156.859 150.478 156.885 150.634 156.885C150.789 156.885 150.944 156.859 151.099 156.807C151.254 156.755 151.393 156.67 151.512 156.556C151.634 156.442 151.733 156.295 151.809 156.118C151.885 155.942 151.924 155.724 151.924 155.466V153.887Z" fill="#FFB026"/>
<path d="M156.185 159.042V151.504C156.185 151.266 156.224 151.057 156.307 150.881C156.389 150.705 156.498 150.555 156.634 150.437C156.769 150.317 156.924 150.225 157.099 150.163C157.274 150.101 157.456 150.069 157.65 150.069C157.931 150.069 158.195 150.137 158.443 150.271C158.69 150.405 158.875 150.607 159.001 150.875C159.271 150.627 159.572 150.431 159.902 150.287C160.232 150.144 160.575 150.072 160.932 150.072C161.037 150.072 161.153 150.078 161.272 150.095C161.394 150.108 161.506 150.14 161.612 150.189C161.892 150.304 162.104 150.496 162.242 150.764C162.384 151.031 162.427 151.335 162.381 151.668C162.331 152.004 162.19 152.271 161.952 152.47C161.714 152.673 161.437 152.77 161.117 152.77C161.011 152.77 160.899 152.77 160.783 152.764C160.668 152.761 160.555 152.764 160.45 152.77C160.044 152.8 159.727 152.921 159.499 153.129C159.271 153.342 159.149 153.629 159.129 153.991V159.045H156.182L156.185 159.042Z" fill="#FFB026"/>
<path d="M163.14 159.042V151.504C163.14 151.266 163.179 151.057 163.262 150.881C163.344 150.705 163.453 150.555 163.589 150.437C163.724 150.317 163.879 150.225 164.054 150.163C164.229 150.101 164.411 150.069 164.605 150.069C164.886 150.069 165.15 150.137 165.398 150.271C165.645 150.405 165.83 150.6 165.955 150.858C166.236 150.6 166.563 150.405 166.936 150.271C167.309 150.137 167.689 150.069 168.075 150.069C168.54 150.069 168.973 150.131 169.375 150.255C169.778 150.379 170.125 150.591 170.422 150.894C170.716 151.194 170.953 151.599 171.125 152.108C171.3 152.614 171.386 153.247 171.386 154.004V159.042H168.395V153.831C168.395 153.593 168.359 153.387 168.286 153.221C168.213 153.054 168.121 152.917 168.009 152.813C167.897 152.708 167.774 152.633 167.639 152.591C167.504 152.549 167.372 152.526 167.246 152.526C167.121 152.526 166.989 152.549 166.853 152.591C166.718 152.633 166.593 152.708 166.477 152.813C166.362 152.917 166.266 153.054 166.193 153.221C166.121 153.387 166.084 153.593 166.084 153.831V159.042H163.136H163.14Z" fill="#FFB026"/>
<path d="M172.857 148.227C172.857 147.757 173.005 147.421 173.306 147.216C173.606 147.01 173.959 146.906 174.365 146.906C174.771 146.906 175.125 147.01 175.425 147.216C175.725 147.421 175.874 147.76 175.874 148.227C175.874 148.465 175.834 148.671 175.752 148.837C175.669 149.004 175.56 149.141 175.425 149.245C175.29 149.35 175.128 149.428 174.946 149.474C174.761 149.523 174.57 149.545 174.365 149.545C174.161 149.545 173.969 149.523 173.784 149.474C173.599 149.425 173.441 149.35 173.306 149.245C173.17 149.141 173.061 149.004 172.979 148.837C172.896 148.671 172.857 148.465 172.857 148.227ZM172.87 151.604C172.87 151.108 173.018 150.743 173.312 150.515C173.606 150.286 173.959 150.169 174.365 150.169C174.771 150.169 175.121 150.283 175.418 150.515C175.712 150.743 175.861 151.108 175.861 151.604V159.041H172.87V151.604Z" fill="#FFB026"/>
<path d="M177.387 159.042V151.504C177.387 151.266 177.426 151.057 177.509 150.881C177.591 150.705 177.7 150.555 177.836 150.437C177.971 150.317 178.126 150.225 178.301 150.163C178.476 150.101 178.658 150.069 178.852 150.069C179.133 150.069 179.397 150.137 179.645 150.271C179.892 150.405 180.077 150.6 180.203 150.858C180.483 150.6 180.81 150.405 181.183 150.271C181.556 150.137 181.936 150.069 182.322 150.069C182.787 150.069 183.22 150.131 183.622 150.255C184.025 150.379 184.372 150.591 184.669 150.894C184.963 151.194 185.2 151.599 185.372 152.108C185.547 152.614 185.633 153.247 185.633 154.004V159.042H182.642V153.831C182.642 153.593 182.606 153.387 182.533 153.221C182.46 153.054 182.368 152.917 182.256 152.813C182.144 152.708 182.021 152.633 181.886 152.591C181.751 152.549 181.619 152.526 181.493 152.526C181.368 152.526 181.236 152.549 181.1 152.591C180.965 152.633 180.84 152.708 180.724 152.813C180.609 152.917 180.513 153.054 180.44 153.221C180.368 153.387 180.331 153.593 180.331 153.831V159.042H177.383H177.387Z" fill="#FFB026"/>
<path d="M195.325 157.965C195.325 158.356 195.269 158.764 195.157 159.185C195.045 159.606 194.827 159.991 194.503 160.34C194.18 160.689 193.718 160.986 193.117 161.231C192.516 161.476 191.727 161.616 190.75 161.655C190.615 161.665 190.453 161.662 190.265 161.649C190.077 161.636 189.878 161.61 189.677 161.577C189.472 161.544 189.281 161.502 189.096 161.446C188.911 161.391 188.763 161.336 188.647 161.267C188.423 161.143 188.268 160.944 188.175 160.67C188.083 160.396 188.086 160.135 188.182 159.887C188.268 159.658 188.419 159.476 188.631 159.342C188.845 159.208 189.076 159.159 189.327 159.198C189.542 159.228 189.763 159.257 189.994 159.283C190.225 159.312 190.479 159.325 190.75 159.325C191.06 159.325 191.328 159.29 191.549 159.218C191.77 159.146 191.955 159.048 192.1 158.924C192.245 158.8 192.351 158.66 192.42 158.506C192.49 158.353 192.523 158.196 192.523 158.033V157.775C192.272 158.023 191.971 158.219 191.621 158.356C191.271 158.497 190.875 158.565 190.43 158.565C189.944 158.565 189.492 158.503 189.073 158.379C188.654 158.255 188.281 158.043 187.96 157.74C187.64 157.439 187.389 157.035 187.205 156.532C187.02 156.03 186.927 155.406 186.927 154.659V154.026C186.927 153.269 187.02 152.639 187.205 152.13C187.389 151.624 187.64 151.217 187.96 150.91C188.281 150.603 188.654 150.384 189.08 150.257C189.505 150.127 189.961 150.065 190.446 150.065C190.813 150.065 191.182 150.133 191.549 150.267C191.915 150.401 192.242 150.603 192.523 150.871C192.638 150.603 192.82 150.401 193.067 150.267C193.315 150.133 193.582 150.065 193.873 150.065C194.259 150.065 194.599 150.185 194.889 150.424C195.18 150.662 195.325 151.021 195.325 151.5V157.961V157.965ZM189.925 154.92C189.925 155.168 189.964 155.374 190.047 155.537C190.129 155.7 190.232 155.834 190.35 155.938C190.473 156.043 190.605 156.118 190.75 156.16C190.895 156.203 191.031 156.225 191.156 156.225C191.281 156.225 191.413 156.203 191.555 156.16C191.697 156.118 191.826 156.049 191.948 155.951C192.07 155.857 192.173 155.729 192.262 155.57C192.348 155.413 192.397 155.217 192.407 154.989V153.755C192.397 153.527 192.348 153.331 192.262 153.174C192.176 153.018 192.07 152.891 191.948 152.793C191.826 152.698 191.697 152.626 191.555 152.584C191.413 152.541 191.281 152.519 191.156 152.519C191.031 152.519 190.895 152.541 190.75 152.584C190.605 152.626 190.473 152.701 190.35 152.806C190.228 152.91 190.126 153.047 190.047 153.214C189.964 153.38 189.925 153.586 189.925 153.824V154.914V154.92Z" fill="#FFB026"/>
<path d="M196.891 157.805C196.891 157.355 197.026 157.002 197.297 156.741C197.567 156.483 197.95 156.353 198.446 156.353C198.941 156.353 199.32 156.483 199.594 156.748C199.865 157.012 200 157.364 200 157.802C200 158.239 199.865 158.595 199.594 158.856C199.324 159.12 198.941 159.25 198.446 159.25C197.95 159.25 197.571 159.12 197.297 158.862C197.026 158.604 196.891 158.249 196.891 157.798V157.805ZM196.963 155.681V148.084C196.963 147.856 197.003 147.65 197.086 147.474C197.168 147.298 197.277 147.148 197.412 147.03C197.548 146.909 197.706 146.818 197.884 146.756C198.063 146.694 198.251 146.661 198.442 146.661C198.634 146.661 198.809 146.694 198.987 146.756C199.165 146.818 199.327 146.909 199.466 147.03C199.608 147.151 199.716 147.298 199.799 147.474C199.882 147.65 199.921 147.856 199.921 148.084V155.681H196.957H196.963Z" fill="#FFB026"/>
<path d="M85.2382 153.511H81.5509L84.1587 150.933C84.4162 150.679 84.4162 150.264 84.1587 150.01C83.9012 149.755 83.482 149.755 83.2245 150.01L80.6167 152.588V148.943C80.6167 148.584 80.3196 148.29 79.9564 148.29C79.5933 148.29 79.2962 148.584 79.2962 148.943V152.588L76.6884 150.01C76.4309 149.755 76.0116 149.755 75.7541 150.01C75.4967 150.264 75.4967 150.679 75.7541 150.933L78.362 153.511H74.6747C74.3116 153.511 74.0145 153.805 74.0145 154.164C74.0145 154.523 74.3116 154.817 74.6747 154.817H78.362L75.7541 157.394C75.4967 157.649 75.4967 158.063 75.7541 158.318C76.0116 158.572 76.4309 158.572 76.6884 158.318L79.2962 155.74V159.385C79.2962 159.744 79.5933 160.038 79.9564 160.038C80.3196 160.038 80.6167 159.744 80.6167 159.385V155.74L83.2245 158.318C83.482 158.572 83.9012 158.572 84.1587 158.318C84.4162 158.063 84.4162 157.649 84.1587 157.394L81.5509 154.817H85.2382C85.6013 154.817 85.8984 154.523 85.8984 154.164C85.8984 153.805 85.6013 153.511 85.2382 153.511Z" fill="#FFB026"/>
<path d="M79.9567 158.08C82.1445 158.08 83.918 156.327 83.918 154.164C83.918 152.001 82.1445 150.248 79.9567 150.248C77.7689 150.248 75.9954 152.001 75.9954 154.164C75.9954 156.327 77.7689 158.08 79.9567 158.08Z" fill="#FFD562"/>
</svg>
